<svg id="Layer_1" data-name="Layer 1" xmlns="http://www.w3.org/2000/svg" viewBox="0 0 207.67 207.67"><defs><style>.cls-1{fill:#fff}.cls-2{fill:#f39200}.cls-3{fill:#6f9c2e}.cls-4{fill:#fdc400}.cls-5{fill:#59832f}</style></defs><path class="cls-1" d="M0 0h207.67v207.67H0z"/><path class="cls-2" d="M80 88.39c-2.47 8-11.77 17.28-19.7 19.81-3.71 1.18-9.27 1.21-13.3 1a27.62 27.62 0 01-5.91-.54 15.13 15.13 0 01-5.42-3.15c3.21.25 10.42-.64 14.58-2.95 3.41-1.9 6.69-5.58 9.31-8.44 3.24-3.53 5.17-7.7 10.09-9.3 4.38-1.43 7.59 2.58 11.08 2.71"/><path class="cls-2" d="M75.79 87.69q.25 1.27.53 2.52c4.13 1 7.59 3 12.11 4.94.93 1.36 1.07 1.27 2.46 2 3.81 5.21 13.74 6.68 19.41 4.47 6.64-2.59 10.58-6.05 14.76-10.85.38-.44.75-.84 1.11-1.23A64 64 0 00118.55 67c-6.75-12.28-15.44-22.73-24.68-32.16-7.4-7.54-18.48-14.05-23.41-24.44 10.12 21.33.64 53.27 5.33 77.29z"/><path class="cls-3" d="M108 79.86c5.73-11.45 15.43-15.61 27.74-11.54 11.2 3.68 24.03 18.28 34.81 17.94-5.25.17-9.61 5.16-13.94 7.62a47 47 0 01-17.52 6.28A22 22 0 01123 95.73C118 92.1 110.85 84 106 83l-.32.17"/><path class="cls-1" d="M75.32 98.77l.32-.17c5.18-1.15 11.94 9.1 17 12.73a22 22 0 0016.11 4.43 46.93 46.93 0 0017.52-6.28c4.32-2.46 8.2-7.27 13.44-7.44-15.54.55-22.74-15.4-34-18.86-12.41-3.82-23.53.52-29.13 11.72a21.28 21.28 0 01-3.13 4.17M79.35 80.32A42.63 42.63 0 0192.3 75a22.06 22.06 0 0116.45 2.89 30 30 0 013.74 2.75q-1-2.19-2.11-4.29A104.29 104.29 0 0093 53.7c-5.2-5.3-13-9.88-16.46-17.18 5.75 12.03 2.58 28.88 2.81 43.8z"/><path class="cls-1" d="M130.58 72.43l-23.53 2.32 23.52 2.41-24.02-.75 21.29 5.29-22.73-3.75 17.47 7.78-19.74-6.48 12.35 9.69-15.29-8.72 6.31 10.87-9.71-10.31-.18 11.26-3.41-11.16-6.67 10.81 3.15-11.16-12.66 9.56 9.46-10.34-17.71 7.59 15.08-8.74-21.45 5.07 19.59-6.52-23.61 2.17 22.64-3.79-24-.89 24-.8-22.61-3.88 23.58 2.26-19.55-6.59 21.43 5.16-15.05-8.81 17.68 7.67-9.42-10.38 12.62 9.61-3.1-11.17 6.63 10.83 3.45-11.13.14 11.26 9.75-10.28-6.36 10.85 15.33-8.66-12.39 9.63 19.77-6.39-17.5 7.71 22.73-3.66-21.3 5.2 24.02-.64z"/><path class="cls-4" d="M83.24 88.16C83.65 92.09 77 98.35 80.7 109c3.51 10.11 12 9.58 16.55 20.81-1.88-16.38 1.75-16.07-.49-25.23-1.72-7-4.84-9.17-7.46-10.48s-5.24-2.5-6.06-5.94z"/><path class="cls-5" d="M55.33 171.37c0 .08 0 .24-.05.5a2.38 2.38 0 01-.09.5 1.91 1.91 0 00-1.69 1.3 8.67 8.67 0 00-.35 2.32q-.19 3-.17 5.58a37.75 37.75 0 01-9.07.54 12.74 12.74 0 01-8.46-3.37q-3.45-3.47-3-9.78A16 16 0 0136 159.3q3.68-4.25 10.07-3.84a32.91 32.91 0 017.71 1.54l.42.77a30.65 30.65 0 01-.76 6.83 3.29 3.29 0 01-.94.06q-.2-7.09-6.93-7.53a7.45 7.45 0 00-6.37 3 14.12 14.12 0 00-3.06 8.45q-.72 11 9.88 11.7a16.6 16.6 0 003.72-.26q.13-1.95.2-3.54.1-2.66-.56-3.34t-3.75-1.28a6 6 0 01.15-1zM70.81 170.14q-1.55.86-6.54 1.48l-3.68.45a1.71 1.71 0 000 .47q.47 3.52 2.16 4.94t5 1a14.45 14.45 0 003.88-1 8.19 8.19 0 01-.06 1.15 14.74 14.74 0 01-6 2.2q-7.12.88-8.16-7.48-.66-5.3 1.65-8.27a6.59 6.59 0 014.62-2.38q6.23-.77 7 5.58a16.2 16.2 0 01.13 1.86zm-3.44-2.64q-.44-3.56-3.54-3.18a3.17 3.17 0 00-2.51 1.82 9.73 9.73 0 00-.85 4.41c.52 0 1.3-.08 2.34-.21a11.43 11.43 0 004.35-1.09c.27-.18.34-.77.22-1.75zM87.35 175.24a3.09 3.09 0 010 1.1 12.7 12.7 0 01-5.17 2.14q-2.43.36-3.52-.9a8.24 8.24 0 01-1.44-4.13q-.13-.89-.66-5.15t-.69-5.38c-.75.11-1.86.3-3.35.57a2.36 2.36 0 01-.15-1 6 6 0 003.35-2.49 11.75 11.75 0 001-4.6 1.91 1.91 0 011 .06c.36.12.57.29.63.52q.24 3 .47 5.06l4.57-.83c0 .45-.07 1.05-.17 1.8q-1.25.1-4.23.46.44 4.08 1.12 8.71a8.86 8.86 0 001.31 4.09 2.86 2.86 0 002.79.75 26.9 26.9 0 003.14-.78zM106.66 173.57v.35a3.33 3.33 0 000 .39 13 13 0 01-3.92 1.4q-2 .24-2.57-2.63a5.49 5.49 0 01-4.75 3.54 5 5 0 01-4-1.06 4.79 4.79 0 01-1.66-3.19 7.68 7.68 0 01.19-2.95 2.88 2.88 0 01.76-1.5q1.43-1.16 6.35-1.77L98 166l1.36-.17v-.39a7.92 7.92 0 00-1.41-4.09 3.48 3.48 0 00-3.31-1 12.41 12.41 0 00-4.16 1.31 5.15 5.15 0 01-.05-1.33 10.8 10.8 0 015.4-2.17q5.69-.71 6.52 5.91.09.74.33 3.18c.17 1.63.28 2.7.34 3.22q.27 2.21 1.25 2.75a4.89 4.89 0 002.39.35zm-7.09-5.8a10.18 10.18 0 00-3.48-.16q-2.56.32-2.91 1a4.71 4.71 0 00-.43 2.89 3.66 3.66 0 001.15 2.41 2.91 2.91 0 002.38.65 3.4 3.4 0 002.7-1.83 6.56 6.56 0 00.68-3.82c-.03-.31-.06-.68-.09-1.14zM133.83 156.05a13.16 13.16 0 01-1.19 4.63q-1.1 2.56-2.19 5.17-1.16 2.84-3.15 8.2l-2.57.08q-1.05-3.82-2.55-8.06-.43-1.23-1.27-3.5l-1.45 3.62q-2.14 5.59-3 8.18l-2.58.08q-1-3.4-2.7-8.06-.46-1.15-1.31-3.43a20.31 20.31 0 00-1.55-3.42 2.54 2.54 0 00-1.94-.84 7.25 7.25 0 010-1 28.47 28.47 0 014.81-1.23l.25.5a59.11 59.11 0 002.89 9.24q.34.93 1.78 4.56.61-1.62 1.81-4.7a18.67 18.67 0 001.61-6.14q0-1.44-2.12-1.57a6 6 0 010-1 31.54 31.54 0 014.84-1.24l.25.5q.76 4.58 4.39 13.77l1.85-4.66a28.53 28.53 0 002-9.58zM153.1 175.4l-.05.35a2.93 2.93 0 00-.1.38 13.07 13.07 0 01-4.15.27q-2-.31-1.75-3.24a5.49 5.49 0 01-5.54 2.1 5 5 0 01-3.58-2.12 4.77 4.77 0 01-.72-3.52 7.65 7.65 0 011-2.79 2.87 2.87 0 011.14-1.23q1.69-.72 6.59 0l.89.14 1.35.21.06-.39a7.92 7.92 0 00-.24-4.32 3.48 3.48 0 00-2.91-1.86 12.52 12.52 0 00-4.36.11 5.1 5.1 0 01.32-1.29 10.76 10.76 0 015.78-.6q5.67.88 4.64 7.47-.11.73-.55 3.15t-.55 3.19c-.23 1.46-.08 2.46.44 3a4.89 4.89 0 002.29.99zm-5.23-7.53a10.12 10.12 0 00-3.31-1.1q-2.55-.39-3.06.12a4.72 4.72 0 00-1.2 2.66 3.67 3.67 0 00.44 2.64 2.91 2.91 0 002.11 1.27 3.4 3.4 0 003.1-1 6.56 6.56 0 001.71-3.49c.05-.28.12-.64.22-1.1z"/><path class="cls-5" d="M175.5 166.72a60 60 0 01-5.87 8.1 76.5 76.5 0 01-7 7.26 46.73 46.73 0 01-6.41 5q-4.12 2.36-6.8 1.27a2.46 2.46 0 01-1.33-1.13 1.93 1.93 0 011.21-2.71 3.2 3.2 0 001.6 1.24q3.33 1.35 8.8-3.2.41-4.22.95-14.74a17.43 17.43 0 00-.06-4A2.9 2.9 0 00159 162a7.21 7.21 0 01.46-.91 34.3 34.3 0 015.09.85l.06.57a78.61 78.61 0 00-1.11 10q-.26 3.73-.35 6.85a53.12 53.12 0 009.85-13.65zM51.41 150.21a2.76 2.76 0 01-.16.57l-6.38-1.21A4.86 4.86 0 0145 149q1.84.16 2-.83a3.17 3.17 0 000-1.07c-.08-.58-.24-1.52-.48-2.81q-1.28-.29-2.86-.59c-1.08-.2-2-.37-2.89-.5q-.79 1.38-1.1 2a4.26 4.26 0 00-.42 1.08c-.17.89.53 1.57 2.08 2a4.33 4.33 0 01-.16.57l-6.26-1.19a3.67 3.67 0 01.16-.58 3.56 3.56 0 002-.31 5 5 0 001.46-1.68q1-1.56 2.41-3.93 2.47-4.09 4.29-7.44c.36 0 .84-.08 1.43-.12l.33.06a73.84 73.84 0 001.25 8.74q.13.73 1 4.71a5.71 5.71 0 00.74 2.11 3.08 3.08 0 001.43.99zm-5.07-6.87l-.21-1.18q-.36-2-.91-4.55-.14-.68-.28-1.22c-.15.21-.38.56-.68 1q-.76 1.19-2.41 3.93c-.14.22-.34.56-.6 1l2.52.5zM62.93 151.1a3.58 3.58 0 01-.09.47 15.62 15.62 0 01-3.79-.14l-.12-.23v-1.22a3.53 3.53 0 01-3.09 1.39 3.69 3.69 0 01-2.73-1.45 5.84 5.84 0 01-.88-4.17 6.35 6.35 0 011.94-4.41 5.17 5.17 0 014-.92 7.15 7.15 0 011.69.35l.25-2.65q.17-1.87-1-2a13.55 13.55 0 00-1.43 0c0-.12 0-.33.1-.61a24.54 24.54 0 014.42-.51l.14.28q-.43 3.11-1.06 9.89-.08.88-.26 3c-.11 1.31 0 2.08.27 2.31a4.4 4.4 0 001.64.62zm-3.25-9a5.21 5.21 0 00-2.17-.7 2.29 2.29 0 00-1.45.25q-1.52 1-1.78 3.8a5.33 5.33 0 00.54 3.35 2.39 2.39 0 001.87 1.13 2.49 2.49 0 002.31-1.46q.07-.52.49-4.52zM72.85 146.17a13.07 13.07 0 01-4.08.3l-2.26-.06a1 1 0 000 .28 4.62 4.62 0 00.86 3.18 3.83 3.83 0 002.91 1.06 8.73 8.73 0 002.43-.27 4.89 4.89 0 01-.14.69 9 9 0 01-3.83.78q-4.38-.11-4.25-5.25a6.62 6.62 0 011.74-4.83 4 4 0 013-1q3.83.09 3.73 4a9.46 9.46 0 01-.11 1.12zm-1.85-1.9q.05-2.19-1.85-2.24a1.93 1.93 0 00-1.68.87 6 6 0 00-.91 2.59q.47.06 1.43.08a6.93 6.93 0 002.72-.27c.2-.08.29-.43.29-1.03zM80.08 151.22a2.48 2.48 0 010 .48 17.3 17.3 0 01-3.26.27H76l-.17-.28q.12-2.33.07-7.21l-.06-5.87q0-1.88-1.21-1.87a9.14 9.14 0 00-1.14.08 6.16 6.16 0 010-.64 26.6 26.6 0 014.15-.9l.17.26q-.09 4.71 0 10c0 1.19 0 2.21.06 3.07q.06 2 .56 2.25a4.37 4.37 0 001.65.36zM91.88 150.77v.21a2 2 0 000 .24 7.89 7.89 0 01-2.45.63q-1.21 0-1.41-1.74a3.34 3.34 0 01-3.09 1.89 3 3 0 01-2.39-.86 2.91 2.91 0 01-.83-2 4.69 4.69 0 01.27-1.78 1.77 1.77 0 01.54-.87 8.67 8.67 0 014-.73h1.38v-.24a4.83 4.83 0 00-.64-2.56 2.12 2.12 0 00-2-.78 7.64 7.64 0 00-2.6.56 3.07 3.07 0 010-.81 6.55 6.55 0 013.39-1q3.49-.12 3.64 3.94v4c0 .9.23 1.48.61 1.74a3 3 0 001.58.16zm-4-3.91a6.09 6.09 0 00-2.1-.28q-1.57.05-1.82.42a2.89 2.89 0 00-.42 1.73 2.23 2.23 0 00.56 1.53 1.77 1.77 0 001.41.52 2.08 2.08 0 001.74-1 4 4 0 00.62-2.28c.02-.13.02-.35.02-.64zM96.13 140.73q0 3 .08 5.81c.06 1.24.15 2.8.3 4.7l-2.16.09q.05-2.69 0-5.28l-.09-2.28q-.13-1.77-1.37-1.77c-.24 0-.62.06-1.16.14v-.67a28.75 28.75 0 014.17-1zm-.34-5.15a1.27 1.27 0 01-.35 1 1.29 1.29 0 01-.92.43 1.31 1.31 0 01-1-.35 1.26 1.26 0 01-.44-.92 1.29 1.29 0 01.36-1 1.33 1.33 0 01.94-.43 1.28 1.28 0 011 .35 1.3 1.3 0 01.41.92zM110.94 150.11a3.38 3.38 0 010 .48 15.6 15.6 0 01-3.77.34l-.15-.21c0-.24-.1-.64-.18-1.21a3.52 3.52 0 01-2.89 1.76 3.7 3.7 0 01-2.89-1.1 5.85 5.85 0 01-1.39-4 6.36 6.36 0 011.37-4.61 5.17 5.17 0 013.84-1.41 7.11 7.11 0 011.72.13l-.09-2.66q-.06-1.88-1.27-1.84a12.46 12.46 0 00-1.42.17v-.62a24.7 24.7 0 014.41-1.07l.17.26q0 3.14.18 9.94 0 .88.12 3c.06 1.31.24 2.07.56 2.26a4.33 4.33 0 001.68.39zm-4.35-8.5a5.35 5.35 0 00-2.24-.43 2.31 2.31 0 00-1.41.43q-1.38 1.16-1.29 4a5.34 5.34 0 001 3.25 2.38 2.38 0 002 .88q1.35 0 2.12-1.76c0-.35 0-1.86-.08-4.54zM120.8 145a13.07 13.07 0 01-4.07.38h-2.26a1 1 0 000 .28 4.62 4.62 0 00.92 3.16 3.84 3.84 0 002.93 1 8.89 8.89 0 002.43-.32 5.47 5.47 0 01-.12.69 9 9 0 01-3.81.86q-4.37 0-4.35-5.16a6.64 6.64 0 011.64-4.87 4 4 0 013-1.08q3.83 0 3.81 3.92a10.22 10.22 0 01-.12 1.14zm-1.87-1.87q0-2.19-1.89-2.2a1.93 1.93 0 00-1.66.91 6 6 0 00-.86 2.6c.32 0 .79.05 1.43.06a7 7 0 002.71-.32c.18-.09.27-.44.27-1.04zM146.38 152.56a4 4 0 01-.12.59l-6.8-.87a3.82 3.82 0 01.12-.58 3 3 0 001.8-.35 2.68 2.68 0 00.69-1.65c.29-1.77.52-3.3.69-4.59q-4.88-.67-8.31-1l-.5 4.23a3.73 3.73 0 00.11 2.06 4 4 0 002 .89 3.52 3.52 0 01-.12.58l-6.77-.87a3.62 3.62 0 01.12-.58 3 3 0 001.84-.35 2.68 2.68 0 00.69-1.65q.34-2.07.7-4.9.42-3.26.56-4.53a3.71 3.71 0 00-.11-2.07 4.22 4.22 0 00-2-.89 3.43 3.43 0 01.12-.58l6.79.87a4.32 4.32 0 01-.12.58 3.06 3.06 0 00-1.84.36 2.49 2.49 0 00-.7 1.64q-.4 2.54-.6 4.1 1.73.24 4 .54l4.28.53q.34-2.62.46-3.75a3.62 3.62 0 00-.12-2.08 4.25 4.25 0 00-2-.88 3.62 3.62 0 01.12-.58l6.63.85a4.36 4.36 0 01-.1.59 2.67 2.67 0 00-1.72.37 2.87 2.87 0 00-.66 1.65q-.45 2.75-.72 4.9-.24 1.91-.53 4.54a3.6 3.6 0 00.12 2.08 4.27 4.27 0 002 .8zM153.23 144.16q-.81 2.84-1.43 5.63-.41 1.81-.94 4.62l-2.11-.47q.75-2.59 1.34-5.11l.5-2.23q.39-1.76-.81-2a10.85 10.85 0 00-1.16-.16c0-.12.09-.34.19-.64a28 28 0 014.3.09zm1-5.06a1.27 1.27 0 01-.59.83 1.29 1.29 0 01-1 .18 1.31 1.31 0 01-.84-.59 1.25 1.25 0 01-.19-1 1.3 1.3 0 01.61-.85 1.32 1.32 0 011-.17 1.28 1.28 0 01.83.59 1.31 1.31 0 01.2 1.01zM159.42 156a2.35 2.35 0 01-.17.45 17.4 17.4 0 01-3.21-.64l-.73-.2-.08-.32q.76-2.21 2.07-6.9l1.57-5.66q.51-1.81-.64-2.13a9.13 9.13 0 00-1.12-.24q.06-.21.22-.61a26.85 26.85 0 014.24.29l.09.3q-1.4 4.5-2.81 9.56-.48 1.72-.8 3-.48 1.92-.09 2.32a4.34 4.34 0 001.46.78zM165.77 158.13a2.59 2.59 0 01-.2.44 17.38 17.38 0 01-3.17-.81l-.72-.24-.07-.32q.88-2.17 2.42-6.79l1.86-5.57c.4-1.19.22-1.91-.53-2.16a9 9 0 00-1.1-.29 5.93 5.93 0 01.25-.59 26.26 26.26 0 014.22.51l.07.3q-1.63 4.42-3.29 9.41c-.38 1.13-.69 2.1-.95 2.92q-.58 1.89-.21 2.31a4.32 4.32 0 001.42.88zM175.52 159.53a2.79 2.79 0 01-2 1.69 5.08 5.08 0 01-3.25-.33 4.92 4.92 0 01-1.95-1.34 1.81 1.81 0 01-.42-1.94q.4-1 1.31-.62a1.37 1.37 0 01.59.45 1.47 1.47 0 00-.31 1c0 .84.56 1.49 1.63 1.92a2.26 2.26 0 001.38.15 1.45 1.45 0 001.07-.93 1.81 1.81 0 00-.08-1.57 11.11 11.11 0 00-1.56-1.92 6.43 6.43 0 01-1.42-2 2.35 2.35 0 01.06-1.75 2.58 2.58 0 011.94-1.52 5 5 0 013.12.32 7.62 7.62 0 011.88 1.13v.27c-.17.51-.32.92-.45 1.23a9.63 9.63 0 01-.67 1.32 3.61 3.61 0 01-.59-.19 4.91 4.91 0 00.19-1.23 1.93 1.93 0 00-1.39-2 1.88 1.88 0 00-1.22-.09 1.49 1.49 0 00-1 .92 1.42 1.42 0 00.06 1.23 12.38 12.38 0 001.38 1.67 8.35 8.35 0 011.62 2.25 2.41 2.41 0 01.08 1.88z"/><path d="M37.34 192.37a2.21 2.21 0 01-2.59 1.78 2 2 0 01-1.32-2.71 2.19 2.19 0 012.57-1.77c1.28.33 1.66 1.44 1.34 2.7zm-2.41 1.32c.78.2 1.5-.46 1.75-1.45s-.05-1.92-.83-2.12-1.51.46-1.76 1.45.06 1.92.84 2.12zM39.07 194.93l-.5-.15-.57-2.87-.23-.59h.67l.52 2.34v.51l.2-.48 1.1-2.07h.6zM43.68 193.26l-.16.17-1.9-.07c0 .61.25 1.25.92 1.27a1.79 1.79 0 001.09-.43l.08.52a2 2 0 01-1.34.42 1.55 1.55 0 01-1.37-1.73c0-1 .53-1.82 1.57-1.78s1.11 1.21 1.11 1.63zm-2-.33h1.4c0-.35-.12-.9-.59-.92s-.71.44-.82.92zM46.5 192.38a.57.57 0 00-.35-.14 1.09 1.09 0 00-.89 1.13v1.23l.07.51h-.64v-2.72l-.1-.62.66-.09v.75a1.28 1.28 0 011-.79.58.58 0 01.43.19zM49.71 194.9l-.12-2c0-.65-.14-.95-.56-.92a1.26 1.26 0 00-1 .57l.12 1.89.1.51h-.64l-.17-2.72-.13-.62.65-.11v.51a1.73 1.73 0 011.18-.61.81.81 0 01.94.74l.14 2.14.1.49zM51.39 190a.36.36 0 01.38.32.35.35 0 11-.7.06.36.36 0 01.32-.38zm.72 4.16l.12.5-.64.06-.26-2.72-.15-.61.65-.14zM53.94 193.6a.68.68 0 00-.15.4c.06.56 2.25-.56 2.4.77.09.72-.69 1.22-1.47 1.31-1.22.14-1.49-.55-1.49-.55l.38-.44a1.07 1.07 0 001.14.55c.5-.06.89-.34.86-.64-.1-.82-2.13.38-2.27-.8a1.07 1.07 0 01.3-.73 1.36 1.36 0 01.65-2.48 1 1 0 01.66.11l.11-.1.88-.1-.08.48-.54.06a1.15 1.15 0 01.3.67 1.29 1.29 0 01-1.17 1.53 1.4 1.4 0 01-.51-.04zm.51-.39a.82.82 0 00.59-1c-.06-.49-.42-.86-.8-.82a.92.92 0 00.21 1.79zM59.27 193.81l-.27-1.94c-.09-.64-.21-.93-.62-.87a1.27 1.27 0 00-1 .64l.27 1.88.14.5-.63.09-.62-4.4-.18-.61.64-.17.31 2.2a1.72 1.72 0 011.13-.69.81.81 0 011 .67l.3 2.13.14.48zM61.21 190.13l1-.16-.13.49-.83.13.31 2c0 .32.23.41.44.37a1.14 1.14 0 00.68-.39l.17.5a1.55 1.55 0 01-.91.45c-.44.07-.84-.16-1-.9l-.3-1.92-.41.06-.07-.46.41-.06-.1-.61.62-.17zM68 191.82a2 2 0 01-1.39.9 1.3 1.3 0 01-1.61-1.06 2 2 0 01.69-1.57 2.8 2.8 0 01-.8-1.23 1.12 1.12 0 011.11-1.33 1 1 0 011.27.74c.1.59-.38 1.14-.86 1.67a10 10 0 001.5 1.14 2.88 2.88 0 000-1.53c0-.16-.06-.34-.11-.54l1.34-.23-.05.49-.72.13c0 .09 0 .17.05.25a3 3 0 01-.14 1.67 3.79 3.79 0 001.39.51l-.32.47a4.53 4.53 0 01-1.35-.48zm-1.94-2.13c.38-.42.7-.81.63-1.21A.63.63 0 0066 188a.58.58 0 00-.52.7 2.28 2.28 0 00.59.99zm1.55 1.91a10 10 0 01-1.61-1.22 1.31 1.31 0 00-.42 1 .94.94 0 001.19.81 1.33 1.33 0 00.85-.59zM75.9 190.44l.16.49-.67.13L75 189l-2.36.44.28 1.51.16.49-.67.13-.7-3.79-.2-.6.69-.13.35 1.86 2.36-.44-.23-1.25-.2-.6.69-.13zM78.12 187c.8-.15 1.51.28 1.72 1.41a1.7 1.7 0 01-1.3 2.11c-1.38.26-1.7-1.31-1.72-1.42a1.66 1.66 0 011.3-2.1zm.44 3.06c.56-.1.8-.76.67-1.46s-.59-1.23-1.15-1.12-.8.76-.67 1.46.59 1.25 1.15 1.15zM81.68 189.36l.16.49-.63.12-.81-4.37-.2-.6.63-.19zM82.5 184.94a.35.35 0 01.4.29.35.35 0 11-.69.13.35.35 0 01.29-.42zm1.07 4.06l.16.49-.63.11-.49-2.68-.2-.6.64-.19zM87.29 188.08a1.37 1.37 0 00.44.7l-.61.2a1.21 1.21 0 01-.28-.45 1.47 1.47 0 01-.91.67c-.64.12-1.31-.37-1.51-1.44a1.74 1.74 0 011.31-2.1c.15 0 .34 0 .53-.06l-.18-1-.2-.6.63-.19zm-.57 0l-.38-2.08a6.33 6.33 0 00-.64.07c-.49.09-.79.77-.66 1.48s.59 1.2 1 1.12a1 1 0 00.68-.55zM88.08 185.75a1.78 1.78 0 011.23-.74c.52-.09 1 .06 1.16.69l.31 1.78a1.37 1.37 0 00.44.71l-.61.19a1.13 1.13 0 01-.29-.52 1.43 1.43 0 01-1 .73.85.85 0 01-1-.68c-.13-.74.56-1.38 1.67-1.57v-.24c-.09-.54-.35-.68-.63-.63a1.23 1.23 0 00-.86.67zm2.11 1.76l-.13-.75c-.17 0-1.28.25-1.16.94a.47.47 0 00.59.36 1.25 1.25 0 00.71-.54zM93.22 188.42c-.17.74-.56 1.19-1 1.27a.93.93 0 01-.36 0l-.19-.55a1 1 0 00.35 0 1 1 0 00.75-.85l.08-.39-1.37-2.56-.39-.51.64-.2 1.16 2.1.17.48.06-.51.49-2.29.57-.19zM97.61 182.62l.4-.15L100 186l.45.69-.73.11-.6-1.09-1.65.25-.27 1.22-.58.09zm-.09 2.83l1.3-.2-.82-1.46-.11-.25v.28zM102.83 183.85a.93.93 0 00-.82-.35c-.61.08-.87.74-.78 1.37s.46 1.24 1.13 1.15a1.6 1.6 0 001-.6l.16.5a1.8 1.8 0 01-1.2.64 1.55 1.55 0 01-1.62-1.5 1.65 1.65 0 011.31-2 1.37 1.37 0 011.16.32zM106.22 183.43a.93.93 0 00-.81-.36c-.62.07-.88.72-.8 1.36s.45 1.24 1.11 1.16a1.6 1.6 0 001-.58l.16.5a1.8 1.8 0 01-1.21.62 1.56 1.56 0 01-1.6-1.52 1.65 1.65 0 011.34-2 1.36 1.36 0 011.16.34zM108.88 182.2c.81-.09 1.48.39 1.6 1.54a1.69 1.69 0 01-1.46 2c-1.4.15-1.6-1.44-1.61-1.55a1.66 1.66 0 011.47-1.99zm.2 3.08c.57-.06.86-.69.78-1.4s-.49-1.27-1.06-1.21-.85.69-.78 1.4.49 1.27 1.06 1.21zM113.82 185.21l-.15-2c0-.64-.15-.94-.57-.91a1.26 1.26 0 00-1 .58l.15 1.89.11.5-.64.05-.21-2.72-.14-.62.65-.13v.51a1.74 1.74 0 011.17-.63.86.86 0 01.88.46 1.76 1.76 0 011.17-.62.82.82 0 011 .73l.17 2.14.11.49h-.64l-.15-2c-.05-.65-.15-.94-.57-.91a1.33 1.33 0 00-1 .52l.15 2 .11.49zM119.89 184.85l-.07-2c0-.64-.11-.95-.53-.93a1.26 1.26 0 00-1 .54l.07 1.9.09.51h-.64l-.1-2.72-.11-.62.66-.1v.51a1.73 1.73 0 011.2-.58.86.86 0 01.86.5 1.73 1.73 0 011.2-.58.82.82 0 01.92.77l.08 2.14.09.49h-.64l-.08-2c0-.65-.11-1-.53-.94a1.32 1.32 0 00-1 .48l.07 2 .09.5zM125.26 181.3c.81 0 1.43.55 1.42 1.71a1.7 1.7 0 01-1.66 1.84c-1.4 0-1.44-1.61-1.44-1.71a1.67 1.67 0 011.68-1.84zm-.13 3.08c.57 0 .93-.59.93-1.31s-.35-1.31-.92-1.32-.92.6-.92 1.31.34 1.32.91 1.32zM130.29 184.09a1.36 1.36 0 00.28.78l-.64.07a1.22 1.22 0 01-.18-.51 1.46 1.46 0 01-1 .46c-.65 0-1.2-.64-1.16-1.73a1.74 1.74 0 011.72-1.78 4.89 4.89 0 01.53.06v-1l-.06-.63.66-.05zm-.57-.08l.07-2.12a5.53 5.53 0 00-.64-.07c-.5 0-.94.59-1 1.3s.32 1.3.77 1.31a1 1 0 00.8-.43zM131.63 182a1.78 1.78 0 011.37-.43c.53 0 1 .3 1 .94l-.13 1.8a1.35 1.35 0 00.25.79h-.64a1.08 1.08 0 01-.16-.57 1.45 1.45 0 01-1.12.48.85.85 0 01-.81-.9c.05-.75.88-1.2 2-1.12v-.24c0-.55-.18-.75-.46-.76a1.24 1.24 0 00-1 .44zm1.63 2.22l.05-.75c-.18 0-1.3-.07-1.35.63a.46.46 0 00.48.49 1.26 1.26 0 00.82-.36zM136.07 181.95l1 .11-.25.44-.83-.09-.21 2c0 .32.12.45.33.47a1.13 1.13 0 00.76-.2v.52a1.54 1.54 0 01-1 .2c-.44 0-.78-.37-.7-1.11l.2-1.93h-.41v-.46h.41l.06-.61h.65zM138.37 185.09v.52l-.63-.08.36-2.7v-.63h.66zm.24-4.22a.36.36 0 01.3.4.35.35 0 11-.7-.09.36.36 0 01.41-.31zM141.59 182.6c.8.14 1.32.78 1.12 1.92a1.69 1.69 0 01-1.94 1.53c-1.38-.23-1.15-1.82-1.13-1.93a1.66 1.66 0 011.95-1.52zm-.64 3c.56.1 1-.44 1.14-1.14s-.13-1.35-.69-1.45-1 .44-1.13 1.14.11 1.38.68 1.47zM145.54 186.92L146 185c.14-.63.14-.95-.28-1a1.27 1.27 0 00-1.13.27l-.42 1.85v.52l-.62-.14.6-2.66.05-.63.66.07-.11.5a1.75 1.75 0 011.31-.25.82.82 0 01.69 1l-.47 2.09v.5z"/><path class="cls-2" d="M80.35 88.81C61 72.92 64.46 107.24 35.66 105.63c5.53 4.38 30.18 9.9 44-15.44"/><path class="cls-4" d="M83.34 88.35c-11.75 30.86 9.21 25.8 13.59 40.77-2.07-13.36 1.94-15.11-.46-25.1-2.76-11.52-11.29-8.76-13.13-15.67"/><path class="cls-2" d="M80 88.39c-2.47 8-11.77 17.28-19.7 19.81-3.71 1.18-9.27 1.21-13.3 1a27.62 27.62 0 01-5.91-.54 15.13 15.13 0 01-5.42-3.15c3.21.25 10.42-.64 14.58-2.95 3.41-1.9 6.69-5.58 9.31-8.44 3.24-3.53 5.17-7.7 10.09-9.3 4.38-1.43 7.59 2.58 11.08 2.71"/><path class="cls-2" d="M75.79 87.69q.25 1.27.53 2.52c4.13 1 7.59 3 12.11 4.94.93 1.36 1.07 1.27 2.46 2 3.81 5.21 13.74 6.68 19.41 4.47 6.64-2.59 10.58-6.05 14.76-10.85.38-.44.75-.84 1.11-1.23A64 64 0 00118.55 67c-6.75-12.28-15.44-22.73-24.68-32.16-7.4-7.54-18.48-14.05-23.41-24.44 10.12 21.33.64 53.27 5.33 77.29z"/><path class="cls-3" d="M108 79.86c5.73-11.45 15.43-15.61 27.74-11.54 11.2 3.68 24.03 18.28 34.81 17.94-5.25.17-9.61 5.16-13.94 7.62a47 47 0 01-17.52 6.28A22 22 0 01123 95.73C118 92.1 110.85 84 106 83l-.32.17"/><path class="cls-1" d="M75.32 98.77l.32-.17c5.18-1.15 11.94 9.1 17 12.73a22 22 0 0016.11 4.43 46.93 46.93 0 0017.52-6.28c4.32-2.46 8.2-7.27 13.44-7.44-15.54.55-22.74-15.4-34-18.86-12.41-3.82-23.53.52-29.13 11.72a21.28 21.28 0 01-3.13 4.17M79.35 80.32A42.63 42.63 0 0192.3 75a22.06 22.06 0 0116.45 2.89 30 30 0 013.74 2.75q-1-2.19-2.11-4.29A104.29 104.29 0 0093 53.7c-5.2-5.3-13-9.88-16.46-17.18 5.75 12.03 2.58 28.88 2.81 43.8z"/><path class="cls-1" d="M130.58 72.43l-23.53 2.32 23.52 2.41-24.02-.75 21.29 5.29-22.73-3.75 17.47 7.78-19.74-6.48 12.35 9.69-15.29-8.72 6.31 10.87-9.71-10.31-.18 11.26-3.41-11.16-6.67 10.81 3.15-11.16-12.66 9.56 9.46-10.34-17.71 7.59 15.08-8.74-21.45 5.07 19.59-6.52-23.61 2.17 22.64-3.79-24-.89 24-.8-22.61-3.88 23.58 2.26-19.55-6.59 21.43 5.16-15.05-8.81 17.68 7.67-9.42-10.38 12.62 9.61-3.1-11.17 6.63 10.83 3.45-11.13.14 11.26 9.75-10.28-6.36 10.85 15.33-8.66-12.39 9.63 19.77-6.39-17.5 7.71 22.73-3.66-21.3 5.2 24.02-.64z"/><path class="cls-4" d="M83.24 88.16C83.65 92.09 77 98.35 80.7 109c3.51 10.11 12 9.58 16.55 20.81-1.88-16.38 1.75-16.07-.49-25.23-1.72-7-4.84-9.17-7.46-10.48s-5.24-2.5-6.06-5.94z"/><path class="cls-5" d="M55.33 171.37c0 .08 0 .24-.05.5a2.38 2.38 0 01-.09.5 1.91 1.91 0 00-1.69 1.3 8.67 8.67 0 00-.35 2.32q-.19 3-.17 5.58a37.75 37.75 0 01-9.07.54 12.74 12.74 0 01-8.46-3.37q-3.45-3.47-3-9.78A16 16 0 0136 159.3q3.68-4.25 10.07-3.84a32.91 32.91 0 017.71 1.54l.42.77a30.65 30.65 0 01-.76 6.83 3.29 3.29 0 01-.94.06q-.2-7.09-6.93-7.53a7.45 7.45 0 00-6.37 3 14.12 14.12 0 00-3.06 8.45q-.72 11 9.88 11.7a16.6 16.6 0 003.72-.26q.13-1.95.2-3.54.1-2.66-.56-3.34t-3.75-1.28a6 6 0 01.15-1zM70.81 170.14q-1.55.86-6.54 1.48l-3.68.45a1.71 1.71 0 000 .47q.47 3.52 2.16 4.94t5 1a14.45 14.45 0 003.88-1 8.19 8.19 0 01-.06 1.15 14.74 14.74 0 01-6 2.2q-7.12.88-8.16-7.48-.66-5.3 1.65-8.27a6.59 6.59 0 014.62-2.38q6.23-.77 7 5.58a16.2 16.2 0 01.13 1.86zm-3.44-2.64q-.44-3.56-3.54-3.18a3.17 3.17 0 00-2.51 1.82 9.73 9.73 0 00-.85 4.41c.52 0 1.3-.08 2.34-.21a11.43 11.43 0 004.35-1.09c.27-.18.34-.77.22-1.75zM87.35 175.24a3.09 3.09 0 010 1.1 12.7 12.7 0 01-5.17 2.14q-2.43.36-3.52-.9a8.24 8.24 0 01-1.44-4.13q-.13-.89-.66-5.15t-.69-5.38c-.75.11-1.86.3-3.35.57a2.36 2.36 0 01-.15-1 6 6 0 003.35-2.49 11.75 11.75 0 001-4.6 1.91 1.91 0 011 .06c.36.12.57.29.63.52q.24 3 .47 5.06l4.57-.83c0 .45-.07 1.05-.17 1.8q-1.25.1-4.23.46.44 4.08 1.12 8.71a8.86 8.86 0 001.31 4.09 2.86 2.86 0 002.79.75 26.9 26.9 0 003.14-.78zM106.66 173.57v.35a3.33 3.33 0 000 .39 13 13 0 01-3.92 1.4q-2 .24-2.57-2.63a5.49 5.49 0 01-4.75 3.54 5 5 0 01-4-1.06 4.79 4.79 0 01-1.66-3.19 7.68 7.68 0 01.19-2.95 2.88 2.88 0 01.76-1.5q1.43-1.16 6.35-1.77L98 166l1.36-.17v-.39a7.92 7.92 0 00-1.41-4.09 3.48 3.48 0 00-3.31-1 12.41 12.41 0 00-4.16 1.31 5.15 5.15 0 01-.05-1.33 10.8 10.8 0 015.4-2.17q5.69-.71 6.52 5.91.09.74.33 3.18c.17 1.63.28 2.7.34 3.22q.27 2.21 1.25 2.75a4.89 4.89 0 002.39.35zm-7.09-5.8a10.18 10.18 0 00-3.48-.16q-2.56.32-2.91 1a4.71 4.71 0 00-.43 2.89 3.66 3.66 0 001.15 2.41 2.91 2.91 0 002.38.65 3.4 3.4 0 002.7-1.83 6.56 6.56 0 00.68-3.82c-.03-.31-.06-.68-.09-1.14zM133.83 156.05a13.16 13.16 0 01-1.19 4.63q-1.1 2.56-2.19 5.17-1.16 2.84-3.15 8.2l-2.57.08q-1.05-3.82-2.55-8.06-.43-1.23-1.27-3.5l-1.45 3.62q-2.14 5.59-3 8.18l-2.58.08q-1-3.4-2.7-8.06-.46-1.15-1.31-3.43a20.31 20.31 0 00-1.55-3.42 2.54 2.54 0 00-1.94-.84 7.25 7.25 0 010-1 28.47 28.47 0 014.81-1.23l.25.5a59.11 59.11 0 002.89 9.24q.34.93 1.78 4.56.61-1.62 1.81-4.7a18.67 18.67 0 001.61-6.14q0-1.44-2.12-1.57a6 6 0 010-1 31.54 31.54 0 014.84-1.24l.25.5q.76 4.58 4.39 13.77l1.85-4.66a28.53 28.53 0 002-9.58zM153.1 175.4l-.05.35a2.93 2.93 0 00-.1.38 13.07 13.07 0 01-4.15.27q-2-.31-1.75-3.24a5.49 5.49 0 01-5.54 2.1 5 5 0 01-3.58-2.12 4.77 4.77 0 01-.72-3.52 7.65 7.65 0 011-2.79 2.87 2.87 0 011.14-1.23q1.69-.72 6.59 0l.89.14 1.35.21.06-.39a7.92 7.92 0 00-.24-4.32 3.48 3.48 0 00-2.91-1.86 12.52 12.52 0 00-4.36.11 5.1 5.1 0 01.32-1.29 10.76 10.76 0 015.78-.6q5.67.88 4.64 7.47-.11.73-.55 3.15t-.55 3.19c-.23 1.46-.08 2.46.44 3a4.89 4.89 0 002.29.99zm-5.23-7.53a10.12 10.12 0 00-3.31-1.1q-2.55-.39-3.06.12a4.72 4.72 0 00-1.2 2.66 3.67 3.67 0 00.44 2.64 2.91 2.91 0 002.11 1.27 3.4 3.4 0 003.1-1 6.56 6.56 0 001.71-3.49c.05-.28.12-.64.22-1.1z"/><path class="cls-5" d="M175.5 166.72a60 60 0 01-5.87 8.1 76.5 76.5 0 01-7 7.26 46.73 46.73 0 01-6.41 5q-4.12 2.36-6.8 1.27a2.46 2.46 0 01-1.33-1.13 1.93 1.93 0 011.21-2.71 3.2 3.2 0 001.6 1.24q3.33 1.35 8.8-3.2.41-4.22.95-14.74a17.43 17.43 0 00-.06-4A2.9 2.9 0 00159 162a7.21 7.21 0 01.46-.91 34.3 34.3 0 015.09.85l.06.57a78.61 78.61 0 00-1.11 10q-.26 3.73-.35 6.85a53.12 53.12 0 009.85-13.65z"/><path d="M51.41 150.21a2.76 2.76 0 01-.16.57l-6.38-1.21A4.86 4.86 0 0145 149q1.84.16 2-.83a3.17 3.17 0 000-1.07c-.08-.58-.24-1.52-.48-2.81q-1.28-.29-2.86-.59c-1.08-.2-2-.37-2.89-.5q-.79 1.38-1.1 2a4.26 4.26 0 00-.42 1.08c-.17.89.53 1.57 2.08 2a4.33 4.33 0 01-.16.57l-6.26-1.19a3.67 3.67 0 01.16-.58 3.56 3.56 0 002-.31 5 5 0 001.46-1.68q1-1.56 2.41-3.93 2.47-4.09 4.29-7.44c.36 0 .84-.08 1.43-.12l.33.06a73.84 73.84 0 001.25 8.74q.13.73 1 4.71a5.71 5.71 0 00.74 2.11 3.08 3.08 0 001.43.99zm-5.07-6.87l-.21-1.18q-.36-2-.91-4.55-.14-.68-.28-1.22c-.15.21-.38.56-.68 1q-.76 1.19-2.41 3.93c-.14.22-.34.56-.6 1l2.52.5zM62.93 151.1a3.58 3.58 0 01-.09.47 15.62 15.62 0 01-3.79-.14l-.12-.23v-1.22a3.53 3.53 0 01-3.09 1.39 3.69 3.69 0 01-2.73-1.45 5.84 5.84 0 01-.88-4.17 6.35 6.35 0 011.94-4.41 5.17 5.17 0 014-.92 7.15 7.15 0 011.69.35l.25-2.65q.17-1.87-1-2a13.55 13.55 0 00-1.43 0c0-.12 0-.33.1-.61a24.54 24.54 0 014.42-.51l.14.28q-.43 3.11-1.06 9.89-.08.88-.26 3c-.11 1.31 0 2.08.27 2.31a4.4 4.4 0 001.64.62zm-3.25-9a5.21 5.21 0 00-2.17-.7 2.29 2.29 0 00-1.45.25q-1.52 1-1.78 3.8a5.33 5.33 0 00.54 3.35 2.39 2.39 0 001.87 1.13 2.49 2.49 0 002.31-1.46q.07-.52.49-4.52zM72.85 146.17a13.07 13.07 0 01-4.08.3l-2.26-.06a1 1 0 000 .28 4.62 4.62 0 00.86 3.18 3.83 3.83 0 002.91 1.06 8.73 8.73 0 002.43-.27 4.89 4.89 0 01-.14.69 9 9 0 01-3.83.78q-4.38-.11-4.25-5.25a6.62 6.62 0 011.74-4.83 4 4 0 013-1q3.83.09 3.73 4a9.46 9.46 0 01-.11 1.12zm-1.85-1.9q.05-2.19-1.85-2.24a1.93 1.93 0 00-1.68.87 6 6 0 00-.91 2.59q.47.06 1.43.08a6.93 6.93 0 002.72-.27c.2-.08.29-.43.29-1.03zM80.08 151.22a2.48 2.48 0 010 .48 17.3 17.3 0 01-3.26.27H76l-.17-.28q.12-2.33.07-7.21l-.06-5.87q0-1.88-1.21-1.87a9.14 9.14 0 00-1.14.08 6.16 6.16 0 010-.64 26.6 26.6 0 014.15-.9l.17.26q-.09 4.71 0 10c0 1.19 0 2.21.06 3.07q.06 2 .56 2.25a4.37 4.37 0 001.65.36zM91.88 150.77v.21a2 2 0 000 .24 7.89 7.89 0 01-2.45.63q-1.21 0-1.41-1.74a3.34 3.34 0 01-3.09 1.89 3 3 0 01-2.39-.86 2.91 2.91 0 01-.83-2 4.69 4.69 0 01.27-1.78 1.77 1.77 0 01.54-.87 8.67 8.67 0 014-.73h1.38v-.24a4.83 4.83 0 00-.64-2.56 2.12 2.12 0 00-2-.78 7.64 7.64 0 00-2.6.56 3.07 3.07 0 010-.81 6.55 6.55 0 013.39-1q3.49-.12 3.64 3.94v4c0 .9.23 1.48.61 1.74a3 3 0 001.58.16zm-4-3.91a6.09 6.09 0 00-2.1-.28q-1.57.05-1.82.42a2.89 2.89 0 00-.42 1.73 2.23 2.23 0 00.56 1.53 1.77 1.77 0 001.41.52 2.08 2.08 0 001.74-1 4 4 0 00.62-2.28c.02-.13.02-.35.02-.64zM96.13 140.73q0 3 .08 5.81c.06 1.24.15 2.8.3 4.7l-2.16.09q.05-2.69 0-5.28l-.09-2.28q-.13-1.77-1.37-1.77c-.24 0-.62.06-1.16.14v-.67a28.75 28.75 0 014.17-1zm-.34-5.15a1.27 1.27 0 01-.35 1 1.29 1.29 0 01-.92.43 1.31 1.31 0 01-1-.35 1.26 1.26 0 01-.44-.92 1.29 1.29 0 01.36-1 1.33 1.33 0 01.94-.43 1.28 1.28 0 011 .35 1.3 1.3 0 01.41.92zM110.94 150.11a3.38 3.38 0 010 .48 15.6 15.6 0 01-3.77.34l-.15-.21c0-.24-.1-.64-.18-1.21a3.52 3.52 0 01-2.89 1.76 3.7 3.7 0 01-2.89-1.1 5.85 5.85 0 01-1.39-4 6.36 6.36 0 011.37-4.61 5.17 5.17 0 013.84-1.41 7.11 7.11 0 011.72.13l-.09-2.66q-.06-1.88-1.27-1.84a12.46 12.46 0 00-1.42.17v-.62a24.7 24.7 0 014.41-1.07l.17.26q0 3.14.18 9.94 0 .88.12 3c.06 1.31.24 2.07.56 2.26a4.33 4.33 0 001.68.39zm-4.35-8.5a5.35 5.35 0 00-2.24-.43 2.31 2.31 0 00-1.41.43q-1.38 1.16-1.29 4a5.34 5.34 0 001 3.25 2.38 2.38 0 002 .88q1.35 0 2.12-1.76c0-.35 0-1.86-.08-4.54zM120.8 145a13.07 13.07 0 01-4.07.38h-2.26a1 1 0 000 .28 4.62 4.62 0 00.92 3.16 3.84 3.84 0 002.93 1 8.89 8.89 0 002.43-.32 5.47 5.47 0 01-.12.69 9 9 0 01-3.81.86q-4.37 0-4.35-5.16a6.64 6.64 0 011.64-4.87 4 4 0 013-1.08q3.83 0 3.81 3.92a10.22 10.22 0 01-.12 1.14zm-1.87-1.87q0-2.19-1.89-2.2a1.93 1.93 0 00-1.66.91 6 6 0 00-.86 2.6c.32 0 .79.05 1.43.06a7 7 0 002.71-.32c.18-.09.27-.44.27-1.04zM146.38 152.56a4 4 0 01-.12.59l-6.8-.87a3.82 3.82 0 01.12-.58 3 3 0 001.8-.35 2.68 2.68 0 00.69-1.65c.29-1.77.52-3.3.69-4.59q-4.88-.67-8.31-1l-.5 4.23a3.73 3.73 0 00.11 2.06 4 4 0 002 .89 3.52 3.52 0 01-.12.58l-6.77-.87a3.62 3.62 0 01.12-.58 3 3 0 001.84-.35 2.68 2.68 0 00.69-1.65q.34-2.07.7-4.9.42-3.26.56-4.53a3.71 3.71 0 00-.11-2.07 4.22 4.22 0 00-2-.89 3.43 3.43 0 01.12-.58l6.79.87a4.32 4.32 0 01-.12.58 3.06 3.06 0 00-1.84.36 2.49 2.49 0 00-.7 1.64q-.4 2.54-.6 4.1 1.73.24 4 .54l4.28.53q.34-2.62.46-3.75a3.62 3.62 0 00-.12-2.08 4.25 4.25 0 00-2-.88 3.62 3.62 0 01.12-.58l6.63.85a4.36 4.36 0 01-.1.59 2.67 2.67 0 00-1.72.37 2.87 2.87 0 00-.66 1.65q-.45 2.75-.72 4.9-.24 1.91-.53 4.54a3.6 3.6 0 00.12 2.08 4.27 4.27 0 002 .8zM153.23 144.16q-.81 2.84-1.43 5.63-.41 1.81-.94 4.62l-2.11-.47q.75-2.59 1.34-5.11l.5-2.23q.39-1.76-.81-2a10.85 10.85 0 00-1.16-.16c0-.12.09-.34.19-.64a28 28 0 014.3.09zm1-5.06a1.27 1.27 0 01-.59.83 1.29 1.29 0 01-1 .18 1.31 1.31 0 01-.84-.59 1.25 1.25 0 01-.19-1 1.3 1.3 0 01.61-.85 1.32 1.32 0 011-.17 1.28 1.28 0 01.83.59 1.31 1.31 0 01.2 1.01zM159.42 156a2.35 2.35 0 01-.17.45 17.4 17.4 0 01-3.21-.64l-.73-.2-.08-.32q.76-2.21 2.07-6.9l1.57-5.66q.51-1.81-.64-2.13a9.13 9.13 0 00-1.12-.24q.06-.21.22-.61a26.85 26.85 0 014.24.29l.09.3q-1.4 4.5-2.81 9.56-.48 1.72-.8 3-.48 1.92-.09 2.32a4.34 4.34 0 001.46.78zM165.77 158.13a2.59 2.59 0 01-.2.44 17.38 17.38 0 01-3.17-.81l-.72-.24-.07-.32q.88-2.17 2.42-6.79l1.86-5.57c.4-1.19.22-1.91-.53-2.16a9 9 0 00-1.1-.29 5.93 5.93 0 01.25-.59 26.26 26.26 0 014.22.51l.07.3q-1.63 4.42-3.29 9.41c-.38 1.13-.69 2.1-.95 2.92q-.58 1.89-.21 2.31a4.32 4.32 0 001.42.88zM175.52 159.53a2.79 2.79 0 01-2 1.69 5.08 5.08 0 01-3.25-.33 4.92 4.92 0 01-1.95-1.34 1.81 1.81 0 01-.42-1.94q.4-1 1.31-.62a1.37 1.37 0 01.59.45 1.47 1.47 0 00-.31 1c0 .84.56 1.49 1.63 1.92a2.26 2.26 0 001.38.15 1.45 1.45 0 001.07-.93 1.81 1.81 0 00-.08-1.57 11.11 11.11 0 00-1.56-1.92 6.43 6.43 0 01-1.42-2 2.35 2.35 0 01.06-1.75 2.58 2.58 0 011.94-1.52 5 5 0 013.12.32 7.62 7.62 0 011.88 1.13v.27c-.17.51-.32.92-.45 1.23a9.63 9.63 0 01-.67 1.32 3.61 3.61 0 01-.59-.19 4.91 4.91 0 00.19-1.23 1.93 1.93 0 00-1.39-2 1.88 1.88 0 00-1.22-.09 1.49 1.49 0 00-1 .92 1.42 1.42 0 00.06 1.23 12.38 12.38 0 001.38 1.67 8.35 8.35 0 011.62 2.25 2.41 2.41 0 01.08 1.88zM37.34 192.37a2.21 2.21 0 01-2.59 1.78 2 2 0 01-1.32-2.71 2.19 2.19 0 012.57-1.77c1.28.33 1.66 1.44 1.34 2.7zm-2.41 1.32c.78.2 1.5-.46 1.75-1.45s-.05-1.92-.83-2.12-1.51.46-1.76 1.45.06 1.92.84 2.12zM39.07 194.93l-.5-.15-.57-2.87-.23-.59h.67l.52 2.34v.51l.2-.48 1.1-2.07h.6zM43.68 193.26l-.16.17-1.9-.07c0 .61.25 1.25.92 1.27a1.79 1.79 0 001.09-.43l.08.52a2 2 0 01-1.34.42 1.55 1.55 0 01-1.37-1.73c0-1 .53-1.82 1.57-1.78s1.11 1.21 1.11 1.63zm-2-.33h1.4c0-.35-.12-.9-.59-.92s-.71.44-.82.92zM46.5 192.38a.57.57 0 00-.35-.14 1.09 1.09 0 00-.89 1.13v1.23l.07.51h-.64v-2.72l-.1-.62.66-.09v.75a1.28 1.28 0 011-.79.58.58 0 01.43.19zM49.71 194.9l-.12-2c0-.65-.14-.95-.56-.92a1.26 1.26 0 00-1 .57l.12 1.89.1.51h-.64l-.17-2.72-.13-.62.65-.11v.51a1.73 1.73 0 011.18-.61.81.81 0 01.94.74l.14 2.14.1.49zM51.39 190a.36.36 0 01.38.32.35.35 0 11-.7.06.36.36 0 01.32-.38zm.72 4.16l.12.5-.64.06-.26-2.72-.15-.61.65-.14zM53.94 193.6a.68.68 0 00-.15.4c.06.56 2.25-.56 2.4.77.09.72-.69 1.22-1.47 1.31-1.22.14-1.49-.55-1.49-.55l.38-.44a1.07 1.07 0 001.14.55c.5-.06.89-.34.86-.64-.1-.82-2.13.38-2.27-.8a1.07 1.07 0 01.3-.73 1.36 1.36 0 01.65-2.48 1 1 0 01.66.11l.11-.1.88-.1-.08.48-.54.06a1.15 1.15 0 01.3.67 1.29 1.29 0 01-1.17 1.53 1.4 1.4 0 01-.51-.04zm.51-.39a.82.82 0 00.59-1c-.06-.49-.42-.86-.8-.82a.92.92 0 00.21 1.79zM59.27 193.81l-.27-1.94c-.09-.64-.21-.93-.62-.87a1.27 1.27 0 00-1 .64l.27 1.88.14.5-.63.09-.62-4.4-.18-.61.64-.17.31 2.2a1.72 1.72 0 011.13-.69.81.81 0 011 .67l.3 2.13.14.48zM61.21 190.13l1-.16-.13.49-.83.13.31 2c0 .32.23.41.44.37a1.14 1.14 0 00.68-.39l.17.5a1.55 1.55 0 01-.91.45c-.44.07-.84-.16-1-.9l-.3-1.92-.41.06-.07-.46.41-.06-.1-.61.62-.17zM68 191.82a2 2 0 01-1.39.9 1.3 1.3 0 01-1.61-1.06 2 2 0 01.69-1.57 2.8 2.8 0 01-.8-1.23 1.12 1.12 0 011.11-1.33 1 1 0 011.27.74c.1.59-.38 1.14-.86 1.67a10 10 0 001.5 1.14 2.88 2.88 0 000-1.53c0-.16-.06-.34-.11-.54l1.34-.23-.05.49-.72.13c0 .09 0 .17.05.25a3 3 0 01-.14 1.67 3.79 3.79 0 001.39.51l-.32.47a4.53 4.53 0 01-1.35-.48zm-1.94-2.13c.38-.42.7-.81.63-1.21A.63.63 0 0066 188a.58.58 0 00-.52.7 2.28 2.28 0 00.59.99zm1.55 1.91a10 10 0 01-1.61-1.22 1.31 1.31 0 00-.42 1 .94.94 0 001.19.81 1.33 1.33 0 00.85-.59zM75.9 190.44l.16.49-.67.13L75 189l-2.36.44.28 1.51.16.49-.67.13-.7-3.79-.2-.6.69-.13.35 1.86 2.36-.44-.23-1.25-.2-.6.69-.13zM78.12 187c.8-.15 1.51.28 1.72 1.41a1.7 1.7 0 01-1.3 2.11c-1.38.26-1.7-1.31-1.72-1.42a1.66 1.66 0 011.3-2.1zm.44 3.06c.56-.1.8-.76.67-1.46s-.59-1.23-1.15-1.12-.8.76-.67 1.46.59 1.25 1.15 1.15zM81.68 189.36l.16.49-.63.12-.81-4.37-.2-.6.63-.19zM82.5 184.94a.35.35 0 01.4.29.35.35 0 11-.69.13.35.35 0 01.29-.42zm1.07 4.06l.16.49-.63.11-.49-2.68-.2-.6.64-.19zM87.29 188.08a1.37 1.37 0 00.44.7l-.61.2a1.21 1.21 0 01-.28-.45 1.47 1.47 0 01-.91.67c-.64.12-1.31-.37-1.51-1.44a1.74 1.74 0 011.31-2.1c.15 0 .34 0 .53-.06l-.18-1-.2-.6.63-.19zm-.57 0l-.38-2.08a6.33 6.33 0 00-.64.07c-.49.09-.79.77-.66 1.48s.59 1.2 1 1.12a1 1 0 00.68-.55zM88.08 185.75a1.78 1.78 0 011.23-.74c.52-.09 1 .06 1.16.69l.31 1.78a1.37 1.37 0 00.44.71l-.61.19a1.13 1.13 0 01-.29-.52 1.43 1.43 0 01-1 .73.85.85 0 01-1-.68c-.13-.74.56-1.38 1.67-1.57v-.24c-.09-.54-.35-.68-.63-.63a1.23 1.23 0 00-.86.67zm2.11 1.76l-.13-.75c-.17 0-1.28.25-1.16.94a.47.47 0 00.59.36 1.25 1.25 0 00.71-.54zM93.22 188.42c-.17.74-.56 1.19-1 1.27a.93.93 0 01-.36 0l-.19-.55a1 1 0 00.35 0 1 1 0 00.75-.85l.08-.39-1.37-2.56-.39-.51.64-.2 1.16 2.1.17.48.06-.51.49-2.29.57-.19zM97.61 182.62l.4-.15L100 186l.45.69-.73.11-.6-1.09-1.65.25-.27 1.22-.58.09zm-.09 2.83l1.3-.2-.82-1.46-.11-.25v.28zM102.83 183.85a.93.93 0 00-.82-.35c-.61.08-.87.74-.78 1.37s.46 1.24 1.13 1.15a1.6 1.6 0 001-.6l.16.5a1.8 1.8 0 01-1.2.64 1.55 1.55 0 01-1.62-1.5 1.65 1.65 0 011.31-2 1.37 1.37 0 011.16.32zM106.22 183.43a.93.93 0 00-.81-.36c-.62.07-.88.72-.8 1.36s.45 1.24 1.11 1.16a1.6 1.6 0 001-.58l.16.5a1.8 1.8 0 01-1.21.62 1.56 1.56 0 01-1.6-1.52 1.65 1.65 0 011.34-2 1.36 1.36 0 011.16.34zM108.88 182.2c.81-.09 1.48.39 1.6 1.54a1.69 1.69 0 01-1.46 2c-1.4.15-1.6-1.44-1.61-1.55a1.66 1.66 0 011.47-1.99zm.2 3.08c.57-.06.86-.69.78-1.4s-.49-1.27-1.06-1.21-.85.69-.78 1.4.49 1.27 1.06 1.21zM113.82 185.21l-.15-2c0-.64-.15-.94-.57-.91a1.26 1.26 0 00-1 .58l.15 1.89.11.5-.64.05-.21-2.72-.14-.62.65-.13v.51a1.74 1.74 0 011.17-.63.86.86 0 01.88.46 1.76 1.76 0 011.17-.62.82.82 0 011 .73l.17 2.14.11.49h-.64l-.15-2c-.05-.65-.15-.94-.57-.91a1.33 1.33 0 00-1 .52l.15 2 .11.49zM119.89 184.85l-.07-2c0-.64-.11-.95-.53-.93a1.26 1.26 0 00-1 .54l.07 1.9.09.51h-.64l-.1-2.72-.11-.62.66-.1v.51a1.73 1.73 0 011.2-.58.86.86 0 01.86.5 1.73 1.73 0 011.2-.58.82.82 0 01.92.77l.08 2.14.09.49h-.64l-.08-2c0-.65-.11-1-.53-.94a1.32 1.32 0 00-1 .48l.07 2 .09.5zM125.26 181.3c.81 0 1.43.55 1.42 1.71a1.7 1.7 0 01-1.66 1.84c-1.4 0-1.44-1.61-1.44-1.71a1.67 1.67 0 011.68-1.84zm-.13 3.08c.57 0 .93-.59.93-1.31s-.35-1.31-.92-1.32-.92.6-.92 1.31.34 1.32.91 1.32zM130.29 184.09a1.36 1.36 0 00.28.78l-.64.07a1.22 1.22 0 01-.18-.51 1.46 1.46 0 01-1 .46c-.65 0-1.2-.64-1.16-1.73a1.74 1.74 0 011.72-1.78 4.89 4.89 0 01.53.06v-1l-.06-.63.66-.05zm-.57-.08l.07-2.12a5.53 5.53 0 00-.64-.07c-.5 0-.94.59-1 1.3s.32 1.3.77 1.31a1 1 0 00.8-.43zM131.63 182a1.78 1.78 0 011.37-.43c.53 0 1 .3 1 .94l-.13 1.8a1.35 1.35 0 00.25.79h-.64a1.08 1.08 0 01-.16-.57 1.45 1.45 0 01-1.12.48.85.85 0 01-.81-.9c.05-.75.88-1.2 2-1.12v-.24c0-.55-.18-.75-.46-.76a1.24 1.24 0 00-1 .44zm1.63 2.22l.05-.75c-.18 0-1.3-.07-1.35.63a.46.46 0 00.48.49 1.26 1.26 0 00.82-.36zM136.07 181.95l1 .11-.25.44-.83-.09-.21 2c0 .32.12.45.33.47a1.13 1.13 0 00.76-.2v.52a1.54 1.54 0 01-1 .2c-.44 0-.78-.37-.7-1.11l.2-1.93h-.41v-.46h.41l.06-.61h.65zM138.37 185.09v.52l-.63-.08.36-2.7v-.63h.66zm.24-4.22a.36.36 0 01.3.4.35.35 0 11-.7-.09.36.36 0 01.41-.31zM141.59 182.6c.8.14 1.32.78 1.12 1.92a1.69 1.69 0 01-1.94 1.53c-1.38-.23-1.15-1.82-1.13-1.93a1.66 1.66 0 011.95-1.52zm-.64 3c.56.1 1-.44 1.14-1.14s-.13-1.35-.69-1.45-1 .44-1.13 1.14.11 1.38.68 1.47zM145.54 186.92L146 185c.14-.63.14-.95-.28-1a1.27 1.27 0 00-1.13.27l-.42 1.85v.52l-.62-.14.6-2.66.05-.63.66.07-.11.5a1.75 1.75 0 011.31-.25.82.82 0 01.69 1l-.47 2.09v.5z"/><path class="cls-2" d="M80.35 88.81C61 72.92 64.46 107.24 35.66 105.63c5.53 4.38 30.18 9.9 44-15.44"/><path class="cls-4" d="M83.34 88.35c-11.75 30.86 9.21 25.8 13.59 40.77-2.07-13.36 1.94-15.11-.46-25.1-2.76-11.52-11.29-8.76-13.13-15.67"/></svg>