<svg id="Layer_1" data-name="Layer 1" xmlns="http://www.w3.org/2000/svg" xmlns:xlink="http://www.w3.org/1999/xlink" viewBox="0 0 260.8 306.4"><defs><style>.cls-1,.cls-13,.cls-14,.cls-15,.cls-3,.cls-4,.cls-6,.cls-7,.cls-8{fill:#e6e7e8;}.cls-10,.cls-11,.cls-12,.cls-17,.cls-19,.cls-2,.cls-5,.cls-9{fill:none;}.cls-10,.cls-11,.cls-12,.cls-13,.cls-14,.cls-15,.cls-17,.cls-2,.cls-3,.cls-4,.cls-5,.cls-6,.cls-7,.cls-8,.cls-9{stroke:#000;}.cls-13,.cls-14,.cls-15,.cls-3,.cls-5{stroke-miterlimit:10;}.cls-11,.cls-3,.cls-7{stroke-width:0.5px;}.cls-15,.cls-5{stroke-width:0.3px;}.cls-10,.cls-13,.cls-6{stroke-width:0.75px;}.cls-12,.cls-14,.cls-8,.cls-9{stroke-width:0.4px;}.cls-9{stroke-linecap:round;}.cls-16{fill:#fff;}.cls-17{stroke-width:4px;}.cls-18{fill:#6d6e71;}.cls-19{stroke:#fff;}</style><symbol id="benchtop" data-name="benchtop" viewBox="0 0 43.13 9.68"><rect class="cls-4" x="0.5" y="0.5" width="42.13" height="8.68"/></symbol><symbol id="couch" data-name="couch" viewBox="0 0 51.97 20.79"><rect class="cls-4" x="0.5" y="0.5" width="50.97" height="18.52" rx="1" ry="1"/><path class="cls-6" d="M3.37,20s3.86.4,7.56.4S18.5,20,18.5,20V4.68H3.37Z"/><path class="cls-6" d="M18.45,20s3.86.4,7.56.4,7.56-.4,7.56-.4V4.68H18.45Z"/><path class="cls-6" d="M33.57,20s3.86.4,7.56.4S48.7,20,48.7,20V4.68H33.57Z"/></symbol><symbol id="Single_bed" data-name="Single bed" viewBox="0 0 67.14 30.38"><rect class="cls-4" x="0.5" y="0.69" width="66.14" height="29"/><path class="cls-3" d="M42.43,30s1.77.09,4.18.09S50.8,30,50.8,30V.29l-4.18,0-4.18,0s-.23,4.25-.23,7.16.23,6.42.23,8.45.17,4.68.17,7.11S42.43,30,42.43,30Z"/><path class="cls-3" d="M50.42,27.19H63.24a.93.93,0,0,0,.93-.92s.49-5.94.49-11.07-.49-11.07-.49-11.07a.93.93,0,0,0-.93-.92H50.42a.93.93,0,0,0-.93.92S49,11.18,49,15.19s.45,11.07.45,11.07A.93.93,0,0,0,50.42,27.19Z"/></symbol><symbol id="Queen_bed" data-name="Queen bed" viewBox="0 0 73.78 58.44"><rect class="cls-1" x="0.5" y="0.96" width="72.78" height="56.8"/><rect class="cls-2" x="0.5" y="0.96" width="72.78" height="56.8"/><path class="cls-3" d="M48.13,58s1.77.18,4.18.18S56.5,58,56.5,58V.33L52.32.25,48.13.33s-.23,8.23-.23,13.89.23,12.45.23,16.38.17,9.07.17,13.79S48.13,58,48.13,58Z"/><path class="cls-3" d="M57,27.25H69.83a.93.93,0,0,0,.93-.92s.49-5.94.49-11.07-.49-11.07-.49-11.07a.93.93,0,0,0-.93-.92H57a.93.93,0,0,0-.93.92s-.45,7.06-.45,11.07.45,11.07.45,11.07A.93.93,0,0,0,57,27.25Z"/><path class="cls-3" d="M57,55.46H69.83a.93.93,0,0,0,.93-.92s.49-5.94.49-11.07-.49-11.07-.49-11.07a.93.93,0,0,0-.93-.92H57a.93.93,0,0,0-.93.92s-.45,7.06-.45,11.07.45,11.07.45,11.07A.93.93,0,0,0,57,55.46Z"/></symbol><symbol id="coffee_table" data-name="coffee table" viewBox="0 0 14.71 30.98"><rect class="cls-4" x="0.5" y="0.5" width="13.72" height="29.98"/></symbol><symbol id="shower" data-name="shower" viewBox="0 0 21.29 21.29"><rect class="cls-10" x="0.38" y="0.38" width="20.54" height="20.54" rx="1" ry="1"/><rect class="cls-11" x="2.1" y="2.1" width="17.08" height="17.08" rx="1" ry="1"/><circle class="cls-12" cx="4.2" cy="16.99" r="1.02"/><line class="cls-9" x1="5.63" y1="15.67" x2="17.97" y2="3.26"/><line class="cls-9" x1="4.99" y1="15.22" x2="10.17" y2="2.93"/><line class="cls-9" x1="5.96" y1="16.4" x2="18.42" y2="11.45"/></symbol><symbol id="kitchen_sink" data-name="kitchen sink" viewBox="0 0 48.54 16.46"><rect class="cls-4" x="0.5" y="0.5" width="47.54" height="15.46" rx="1" ry="1"/><rect class="cls-7" x="15.93" y="2.48" width="7.67" height="11.51" rx="1" ry="1"/><rect class="cls-7" x="24.27" y="2.48" width="7.67" height="11.51" rx="1" ry="1"/><polygon class="cls-8" points="21.04 4.31 21.62 4.88 24.26 2.24 23.68 1.67 21.04 4.31"/><circle class="cls-7" cx="23.97" cy="1.95" r="0.52"/><circle class="cls-8" cx="19.77" cy="5.72" r="0.64"/><circle class="cls-8" cx="28.1" cy="5.72" r="0.64"/><line class="cls-9" x1="33.93" y1="3.27" x2="46.09" y2="3.27"/><line class="cls-9" x1="33.93" y1="4.27" x2="46.09" y2="4.27"/><line class="cls-9" x1="33.93" y1="5.27" x2="46.09" y2="5.27"/><line class="cls-9" x1="33.93" y1="6.27" x2="46.09" y2="6.27"/><line class="cls-9" x1="33.93" y1="7.27" x2="46.09" y2="7.27"/><line class="cls-9" x1="33.93" y1="8.27" x2="46.09" y2="8.27"/><line class="cls-9" x1="33.93" y1="9.27" x2="46.09" y2="9.27"/><line class="cls-9" x1="33.93" y1="10.27" x2="46.09" y2="10.27"/><line class="cls-9" x1="33.93" y1="11.27" x2="46.09" y2="11.27"/><line class="cls-9" x1="33.93" y1="12.27" x2="46.09" y2="12.27"/><line class="cls-9" x1="33.93" y1="13.27" x2="46.09" y2="13.27"/></symbol><symbol id="toilet" data-name="toilet" viewBox="0 0 13.83 21.88"><path class="cls-13" d="M13.46,11.59c0-5.48-2.93-5.28-6.54-5.28S.38,6.11.38,11.59,3.3,21.5,6.92,21.5,13.46,17.06,13.46,11.59Z"/><path class="cls-14" d="M11.84,12.33c0-4.12-2.21-4-4.93-4S2,8.21,2,12.33,4.2,19.8,6.92,19.8,11.84,16.46,11.84,12.33Z"/><path class="cls-15" d="M8.25,10.46c0-1.12-.6-1.08-1.33-1.08s-1.33,0-1.33,1.08.6,2,1.33,2S8.25,11.57,8.25,10.46Z"/><rect class="cls-13" x="0.37" y="0.38" width="13.08" height="5.6" rx="1" ry="1"/><circle class="cls-14" cx="6.92" cy="3.94" r="0.77"/></symbol><symbol id="chair" data-name="chair" viewBox="0 0 11.61 11.61"><path class="cls-3" d="M10.36,11.36l-9.11-1a.93.93,0,0,1-1-.82V2.08a.93.93,0,0,1,1-.82l9.11-1a1,1,0,0,1,1,1v9.11A1,1,0,0,1,10.36,11.36Z"/><line class="cls-5" x1="1.25" y1="1.26" x2="1.25" y2="10.35"/></symbol><symbol id="table_and_chairs" data-name="table and chairs" viewBox="0 0 45.96 46.12"><rect class="cls-3" x="12.75" y="12.9" width="20.32" height="20.32" rx="1" ry="1"/><use width="11.61" height="11.61" transform="translate(0 17.75)" xlink:href="#chair"/><use width="11.61" height="11.61" transform="translate(45.96 29.36) rotate(180)" xlink:href="#chair"/><use width="11.61" height="11.61" transform="translate(28.71) rotate(90)" xlink:href="#chair"/><use width="11.61" height="11.61" transform="translate(17.11 46.12) rotate(-90)" xlink:href="#chair"/></symbol></defs><title>banksia</title><rect class="cls-16" x="0.73" y="253.5" width="259.5" height="52.4"/><path d="M260,253.21v51.4H1.5v-51.4H260m1-1H.5v53.4H261v-53.4Z" transform="translate(-0.27 0.79)"/><use width="43.13" height="9.68" transform="translate(172.84 45.58)" xlink:href="#benchtop"/><rect class="cls-17" x="2" y="2" width="256.8" height="251.36"/><rect class="cls-2" x="144.86" y="1.4" width="114.2" height="54"/><rect class="cls-2" x="216.74" y="0.6" width="41.71" height="54"/><rect class="cls-2" x="1.9" y="1.63" width="117" height="117.75"/><rect class="cls-2" x="2.24" y="119.98" width="124.31" height="131.05"/><rect class="cls-18" x="200.85" y="45.18" width="15.1" height="10.63"/><rect class="cls-2" x="200.85" y="45.18" width="15.1" height="10.63"/><use width="51.97" height="20.79" transform="translate(182.11 173.39)" xlink:href="#couch"/><rect class="cls-16" x="130.66" y="243.8" width="24.39" height="10.84"/><rect class="cls-19" x="130.66" y="243.8" width="24.39" height="10.84"/><rect class="cls-16" x="239.68" y="51.82" width="15.46" height="6.67"/><rect class="cls-19" x="239.68" y="51.82" width="15.46" height="6.67"/><rect class="cls-16" x="142.99" y="15.07" width="10.69" height="24.89"/><rect class="cls-19" x="142.99" y="15.07" width="10.69" height="24.89"/><rect class="cls-16" x="115.99" y="90.73" width="11.04" height="24.82"/><rect class="cls-19" x="115.99" y="90.73" width="11.04" height="24.82"/><rect class="cls-16" x="122.5" y="136.49" width="11.08" height="24.92"/><rect class="cls-19" x="122.5" y="136.49" width="11.08" height="24.92"/><line class="cls-17" x1="2.83" y1="2.1" x2="2.06" y2="249.32"/><line class="cls-17" x1="258.79" y1="3.62" x2="258.73" y2="253.79"/><use width="67.14" height="30.38" transform="translate(73.89 39.73) rotate(180)" xlink:href="#Single_bed"/><use width="67.14" height="30.38" transform="translate(73.89 84.69) rotate(180)" xlink:href="#Single_bed"/><use width="73.78" height="58.44" transform="translate(80.23 217.75) rotate(180)" xlink:href="#Queen_bed"/><use width="14.71" height="30.98" transform="translate(223.59 203.82) rotate(90)" xlink:href="#coffee_table"/><line class="cls-17" x1="0.73" y1="2.4" x2="260.73" y2="2.4"/><use width="21.29" height="21.29" transform="translate(216.08 33.43)" xlink:href="#shower"/><use width="48.54" height="16.46" transform="translate(155.97 3.77)" xlink:href="#kitchen_sink"/><use width="13.83" height="21.88" transform="translate(239.15 3.94) scale(1.19)" xlink:href="#toilet"/><use width="45.96" height="46.12" transform="translate(161.75 74.01)" xlink:href="#table_and_chairs"/><use width="43.13" height="9.68" transform="translate(3.34 120) scale(0.99)" xlink:href="#benchtop"/><use width="43.13" height="9.68" transform="translate(41.84 109.49)" xlink:href="#benchtop"/></svg>