<svg id="Layer_1" data-name="Layer 1" xmlns="http://www.w3.org/2000/svg" xmlns:xlink="http://www.w3.org/1999/xlink" viewBox="0 0 496.53 249.45"><defs><style>.cls-1,.cls-12,.cls-13,.cls-14,.cls-3,.cls-4,.cls-6,.cls-7{fill:#e6e7e8;}.cls-10,.cls-11,.cls-15,.cls-2,.cls-5,.cls-8,.cls-9{fill:none;}.cls-10,.cls-11,.cls-12,.cls-13,.cls-14,.cls-15,.cls-16,.cls-2,.cls-3,.cls-4,.cls-5,.cls-6,.cls-7,.cls-8,.cls-9{stroke:#000;}.cls-12,.cls-13,.cls-14,.cls-3,.cls-5{stroke-miterlimit:10;}.cls-10,.cls-3,.cls-6{stroke-width:0.5px;}.cls-14,.cls-5{stroke-width:0.3px;}.cls-11,.cls-13,.cls-7,.cls-8{stroke-width:0.4px;}.cls-8{stroke-linecap:round;}.cls-12,.cls-9{stroke-width:0.75px;}.cls-15{stroke-width:4px;}.cls-16{fill:#6d6e71;}.cls-17{fill:#fff;}</style><symbol id="Single_bed" data-name="Single bed" viewBox="0 0 67.14 30.38"><rect class="cls-4" x="0.5" y="0.69" width="66.14" height="29"/><path class="cls-3" d="M42.43,30s1.77.09,4.18.09S50.8,30,50.8,30V.29l-4.18,0-4.18,0s-.23,4.25-.23,7.16.23,6.42.23,8.45.17,4.68.17,7.11S42.43,30,42.43,30Z"/><path class="cls-3" d="M50.42,27.19H63.24a.93.93,0,0,0,.93-.92s.49-5.94.49-11.07-.49-11.07-.49-11.07a.93.93,0,0,0-.93-.92H50.42a.93.93,0,0,0-.93.92S49,11.18,49,15.19s.45,11.07.45,11.07A.93.93,0,0,0,50.42,27.19Z"/></symbol><symbol id="Queen_bed" data-name="Queen bed" viewBox="0 0 73.78 58.44"><rect class="cls-1" x="0.5" y="0.96" width="72.78" height="56.8"/><rect class="cls-2" x="0.5" y="0.96" width="72.78" height="56.8"/><path class="cls-3" d="M48.13,58s1.77.18,4.18.18S56.5,58,56.5,58V.33L52.32.25,48.13.33s-.23,8.23-.23,13.89.23,12.45.23,16.38.17,9.07.17,13.79S48.13,58,48.13,58Z"/><path class="cls-3" d="M57,27.25H69.83a.93.93,0,0,0,.93-.92s.49-5.94.49-11.07-.49-11.07-.49-11.07a.93.93,0,0,0-.93-.92H57a.93.93,0,0,0-.93.92s-.45,7.06-.45,11.07.45,11.07.45,11.07A.93.93,0,0,0,57,27.25Z"/><path class="cls-3" d="M57,55.46H69.83a.93.93,0,0,0,.93-.92s.49-5.94.49-11.07-.49-11.07-.49-11.07a.93.93,0,0,0-.93-.92H57a.93.93,0,0,0-.93.92s-.45,7.06-.45,11.07.45,11.07.45,11.07A.93.93,0,0,0,57,55.46Z"/></symbol><symbol id="shower" data-name="shower" viewBox="0 0 21.29 21.29"><rect class="cls-9" x="0.38" y="0.38" width="20.54" height="20.54" rx="1" ry="1"/><rect class="cls-10" x="2.1" y="2.1" width="17.08" height="17.08" rx="1" ry="1"/><circle class="cls-11" cx="4.2" cy="16.99" r="1.02"/><line class="cls-8" x1="5.63" y1="15.67" x2="17.97" y2="3.26"/><line class="cls-8" x1="4.99" y1="15.22" x2="10.17" y2="2.93"/><line class="cls-8" x1="5.96" y1="16.4" x2="18.42" y2="11.45"/></symbol><symbol id="kitchen_sink" data-name="kitchen sink" viewBox="0 0 48.54 16.46"><rect class="cls-4" x="0.5" y="0.5" width="47.54" height="15.46" rx="1" ry="1"/><rect class="cls-6" x="15.93" y="2.48" width="7.67" height="11.51" rx="1" ry="1"/><rect class="cls-6" x="24.27" y="2.48" width="7.67" height="11.51" rx="1" ry="1"/><polygon class="cls-7" points="21.04 4.31 21.62 4.88 24.26 2.24 23.68 1.67 21.04 4.31"/><circle class="cls-6" cx="23.97" cy="1.95" r="0.52"/><circle class="cls-7" cx="19.77" cy="5.72" r="0.64"/><circle class="cls-7" cx="28.1" cy="5.72" r="0.64"/><line class="cls-8" x1="33.93" y1="3.27" x2="46.09" y2="3.27"/><line class="cls-8" x1="33.93" y1="4.27" x2="46.09" y2="4.27"/><line class="cls-8" x1="33.93" y1="5.27" x2="46.09" y2="5.27"/><line class="cls-8" x1="33.93" y1="6.27" x2="46.09" y2="6.27"/><line class="cls-8" x1="33.93" y1="7.27" x2="46.09" y2="7.27"/><line class="cls-8" x1="33.93" y1="8.27" x2="46.09" y2="8.27"/><line class="cls-8" x1="33.93" y1="9.27" x2="46.09" y2="9.27"/><line class="cls-8" x1="33.93" y1="10.27" x2="46.09" y2="10.27"/><line class="cls-8" x1="33.93" y1="11.27" x2="46.09" y2="11.27"/><line class="cls-8" x1="33.93" y1="12.27" x2="46.09" y2="12.27"/><line class="cls-8" x1="33.93" y1="13.27" x2="46.09" y2="13.27"/></symbol><symbol id="toilet" data-name="toilet" viewBox="0 0 13.83 21.88"><path class="cls-12" d="M13.46,11.59c0-5.48-2.93-5.28-6.54-5.28S.38,6.11.38,11.59,3.3,21.5,6.92,21.5,13.46,17.06,13.46,11.59Z"/><path class="cls-13" d="M11.84,12.33c0-4.12-2.21-4-4.93-4S2,8.21,2,12.33,4.2,19.8,6.92,19.8,11.84,16.46,11.84,12.33Z"/><path class="cls-14" d="M8.25,10.46c0-1.12-.6-1.08-1.33-1.08s-1.33,0-1.33,1.08.6,2,1.33,2S8.25,11.57,8.25,10.46Z"/><rect class="cls-12" x="0.37" y="0.38" width="13.08" height="5.6" rx="1" ry="1"/><circle class="cls-13" cx="6.92" cy="3.94" r="0.77"/></symbol><symbol id="chair" data-name="chair" viewBox="0 0 11.61 11.61"><path class="cls-3" d="M10.36,11.36l-9.11-1a.93.93,0,0,1-1-.82V2.08a.93.93,0,0,1,1-.82l9.11-1a1,1,0,0,1,1,1v9.11A1,1,0,0,1,10.36,11.36Z"/><line class="cls-5" x1="1.25" y1="1.26" x2="1.25" y2="10.35"/></symbol></defs><title>GumTreeLodgeDown</title><line class="cls-15" x1="3.5" y1="243.91" x2="494.03" y2="243.91"/><line class="cls-15" x1="3.5" y1="44.84" x2="494.03" y2="44.84"/><rect class="cls-2" x="2.64" y="44.84" width="491.39" height="199.07"/><rect class="cls-2" x="400.75" y="202.89" width="93.05" height="41.03"/><rect class="cls-2" x="400.75" y="161.86" width="93.05" height="41.03"/><rect class="cls-2" x="213.25" y="44.84" width="122.47" height="83.16"/><rect class="cls-16" x="213.25" y="161.86" width="122.47" height="82.05"/><rect class="cls-16" x="335.7" y="202.89" width="43.75" height="41.03"/><rect class="cls-2" x="213.25" y="128.41" width="122.47" height="33.44"/><rect class="cls-17" x="330.06" y="132.68" width="11.08" height="24.92"/><rect class="cls-17" x="395.21" y="169.91" width="11.08" height="24.92"/><rect class="cls-17" x="425.33" y="197.34" width="24.92" height="11.08"/><rect class="cls-17" x="399.6" y="39.3" width="24.92" height="11.08"/><rect class="cls-17" x="25.38" y="39.3" width="24.92" height="11.08"/><rect class="cls-17" x="115.15" y="238.37" width="24.92" height="11.08"/><rect class="cls-17" x="207.71" y="132.68" width="11.08" height="24.92"/><rect class="cls-17" x="207.71" y="58.48" width="11.08" height="24.92"/><rect class="cls-17" x="266.24" y="122.46" width="24.92" height="11.08"/><line class="cls-15" x1="2.77" y1="46.7" x2="2" y2="244.16"/><line class="cls-15" x1="494.53" y1="46.7" x2="493.76" y2="244.16"/><use width="67.14" height="30.38" transform="translate(423.75 130.1)" xlink:href="#Single_bed"/><use width="73.78" height="58.44" transform="translate(417.1 57.66)" xlink:href="#Queen_bed"/><use width="21.29" height="21.29" transform="translate(490.18 185.46) rotate(180)" xlink:href="#shower"/><use width="48.54" height="16.46" transform="translate(250.22 46.48)" xlink:href="#kitchen_sink"/><use width="13.83" height="21.88" transform="translate(489.6 216.32) rotate(90) scale(1.19)" xlink:href="#toilet"/><g id="table_and_chairs" data-name="table and chairs"><rect class="cls-3" x="63.07" y="118.52" width="81" height="45.1" rx="1" ry="1"/><use width="11.61" height="11.61" transform="translate(50.32 119.37)" xlink:href="#chair"/><use width="11.61" height="11.61" transform="translate(156.28 130.97) rotate(180)" xlink:href="#chair"/><use width="11.61" height="11.61" transform="translate(50.32 134.94)" xlink:href="#chair"/><use width="11.61" height="11.61" transform="translate(156.28 146.54) rotate(180)" xlink:href="#chair"/><use width="11.61" height="11.61" transform="translate(50.32 150.5)" xlink:href="#chair"/><use width="11.61" height="11.61" transform="translate(156.28 162.11) rotate(180)" xlink:href="#chair"/><use width="11.61" height="11.61" transform="translate(76.04 105.62) rotate(90)" xlink:href="#chair"/><use width="11.61" height="11.61" transform="translate(64.43 176.74) rotate(-90)" xlink:href="#chair"/><use width="11.61" height="11.61" transform="translate(92.02 105.62) rotate(90)" xlink:href="#chair"/><use width="11.61" height="11.61" transform="translate(80.42 176.74) rotate(-90)" xlink:href="#chair"/><use width="11.61" height="11.61" transform="translate(108.01 105.62) rotate(90)" xlink:href="#chair"/><use width="11.61" height="11.61" transform="translate(96.4 176.74) rotate(-90)" xlink:href="#chair"/><use width="11.61" height="11.61" transform="translate(124 105.62) rotate(90)" xlink:href="#chair"/><use width="11.61" height="11.61" transform="translate(112.39 176.74) rotate(-90)" xlink:href="#chair"/><use width="11.61" height="11.61" transform="translate(139.98 105.62) rotate(90)" xlink:href="#chair"/><use width="11.61" height="11.61" transform="translate(128.38 176.74) rotate(-90)" xlink:href="#chair"/></g><path d="M227.86,5.54V46.62H90.49V5.54H227.86m1-1H89.49V47.62H228.86V4.54Z" transform="translate(-3.63 -4.54)"/><path d="M227.86,5.54V46.62h-7.1V5.54h7.1m1-1h-9.1V47.62h9.1V4.54Z" transform="translate(-3.63 -4.54)"/><path d="M211.58,5.54V46.62h-7.1V5.54h7.1m1-1h-9.1V47.62h9.1V4.54Z" transform="translate(-3.63 -4.54)"/><path d="M162.72,5.54V46.62h-7.1V5.54h7.1m1-1h-9.1V47.62h9.1V4.54Z" transform="translate(-3.63 -4.54)"/><path d="M146.44,5.54V46.62h-7.1V5.54h7.1m1-1h-9.1V47.62h9.1V4.54Z" transform="translate(-3.63 -4.54)"/><path d="M195.29,5.54V46.62h-7.1V5.54h7.1m1-1h-9.1V47.62h9.1V4.54Z" transform="translate(-3.63 -4.54)"/><path d="M179,5.54V46.62h-7.1V5.54H179m1-1h-9.1V47.62H180V4.54Z" transform="translate(-3.63 -4.54)"/><path d="M130.15,5.54V46.62h-7.1V5.54h7.1m1-1h-9.1V47.62h9.1V4.54Z" transform="translate(-3.63 -4.54)"/><path d="M113.87,5.54V46.62h-7.1V5.54h7.1m1-1h-9.1V47.62h9.1V4.54Z" transform="translate(-3.63 -4.54)"/><path d="M97.58,5.54V46.62h-7.1V5.54h7.1m1-1h-9.1V47.62h9.1V4.54Z" transform="translate(-3.63 -4.54)"/><line class="cls-2" x1="85.39" y1="21.54" x2="156.03" y2="21.54"/><polyline class="cls-2" points="152.21 17.26 156.54 21.48 152.21 25.82"/><path d="M381.31,50.38V91.46H340.24V50.38h41.08m1-1H339.24V92.46h43.08V49.38Z" transform="translate(-3.63 -4.54)"/><path d="M339.29,50.38V91.46h-7.1V50.38h7.1m1-1h-9.1V92.46h9.1V49.38Z" transform="translate(-3.63 -4.54)"/><path d="M381.31,92.07v39.47H340.24V92.07h41.08m1-1H339.24v41.47h43.08V91.07Z" transform="translate(-3.63 -4.54)"/><path d="M381.31,125.44v7.1H340.24v-7.1h41.08m1-1H339.24v9.1h43.08v-9.1Z" transform="translate(-3.63 -4.54)"/><path d="M381.31,109.16v7.1H340.24v-7.1h41.08m1-1H339.24v9.1h43.08v-9.1Z" transform="translate(-3.63 -4.54)"/><path d="M381.31,92.87V100H340.24v-7.1h41.08m1-1H339.24V101h43.08v-9.1Z" transform="translate(-3.63 -4.54)"/><line class="cls-2" x1="356.54" y1="65.74" x2="329.89" y2="65.74"/><polyline class="cls-2" points="333.71 70.02 329.38 65.8 333.71 61.46"/><line class="cls-2" x1="357.14" y1="119.9" x2="357.14" y2="73.53"/><polyline class="cls-2" points="352.86 77.36 357.09 73.02 361.42 77.36"/><line class="cls-2" x1="378.68" y1="129" x2="400.75" y2="161.86"/><rect class="cls-17" x="386.52" y="138.37" width="11.08" height="24.92" transform="translate(-21.48 238.15) rotate(-33.67)"/></svg>