<svg id="Layer_1" data-name="Layer 1" xmlns="http://www.w3.org/2000/svg" xmlns:xlink="http://www.w3.org/1999/xlink" viewBox="0 0 496.26 244.5"><defs><style>.cls-1,.cls-13,.cls-14,.cls-15,.cls-3,.cls-4,.cls-6,.cls-7,.cls-8{fill:#e6e7e8;}.cls-10,.cls-11,.cls-12,.cls-18,.cls-19,.cls-2,.cls-5,.cls-9{fill:none;}.cls-10,.cls-11,.cls-12,.cls-13,.cls-14,.cls-15,.cls-16,.cls-19,.cls-2,.cls-3,.cls-4,.cls-5,.cls-6,.cls-7,.cls-8,.cls-9{stroke:#000;}.cls-13,.cls-14,.cls-15,.cls-3,.cls-5{stroke-miterlimit:10;}.cls-11,.cls-3,.cls-7{stroke-width:0.5px;}.cls-15,.cls-5{stroke-width:0.3px;}.cls-10,.cls-13,.cls-6{stroke-width:0.75px;}.cls-12,.cls-14,.cls-8,.cls-9{stroke-width:0.4px;}.cls-9{stroke-linecap:round;}.cls-16{fill:#6d6e71;}.cls-17{fill:#fff;}.cls-18{stroke:#fff;}.cls-19{stroke-width:4px;}</style><symbol id="Single_bed" data-name="Single bed" viewBox="0 0 67.14 30.38"><rect class="cls-4" x="0.5" y="0.69" width="66.14" height="29"/><path class="cls-3" d="M42.43,30s1.77.09,4.18.09S50.8,30,50.8,30V.29l-4.18,0-4.18,0s-.23,4.25-.23,7.16.23,6.42.23,8.45.17,4.68.17,7.11S42.43,30,42.43,30Z"/><path class="cls-3" d="M50.42,27.19H63.24a.93.93,0,0,0,.93-.92s.49-5.94.49-11.07-.49-11.07-.49-11.07a.93.93,0,0,0-.93-.92H50.42a.93.93,0,0,0-.93.92S49,11.18,49,15.19s.45,11.07.45,11.07A.93.93,0,0,0,50.42,27.19Z"/></symbol><symbol id="couch" data-name="couch" viewBox="0 0 51.97 20.79"><rect class="cls-4" x="0.5" y="0.5" width="50.97" height="18.52" rx="1" ry="1"/><path class="cls-6" d="M3.37,20s3.86.4,7.56.4S18.5,20,18.5,20V4.68H3.37Z"/><path class="cls-6" d="M18.45,20s3.86.4,7.56.4,7.56-.4,7.56-.4V4.68H18.45Z"/><path class="cls-6" d="M33.57,20s3.86.4,7.56.4S48.7,20,48.7,20V4.68H33.57Z"/></symbol><symbol id="Queen_bed" data-name="Queen bed" viewBox="0 0 73.78 58.44"><rect class="cls-1" x="0.5" y="0.96" width="72.78" height="56.8"/><rect class="cls-2" x="0.5" y="0.96" width="72.78" height="56.8"/><path class="cls-3" d="M48.13,58s1.77.18,4.18.18S56.5,58,56.5,58V.33L52.32.25,48.13.33s-.23,8.23-.23,13.89.23,12.45.23,16.38.17,9.07.17,13.79S48.13,58,48.13,58Z"/><path class="cls-3" d="M57,27.25H69.83a.93.93,0,0,0,.93-.92s.49-5.94.49-11.07-.49-11.07-.49-11.07a.93.93,0,0,0-.93-.92H57a.93.93,0,0,0-.93.92s-.45,7.06-.45,11.07.45,11.07.45,11.07A.93.93,0,0,0,57,27.25Z"/><path class="cls-3" d="M57,55.46H69.83a.93.93,0,0,0,.93-.92s.49-5.94.49-11.07-.49-11.07-.49-11.07a.93.93,0,0,0-.93-.92H57a.93.93,0,0,0-.93.92s-.45,7.06-.45,11.07.45,11.07.45,11.07A.93.93,0,0,0,57,55.46Z"/></symbol><symbol id="coffee_table" data-name="coffee table" viewBox="0 0 14.71 30.98"><rect class="cls-4" x="0.5" y="0.5" width="13.72" height="29.98"/></symbol><symbol id="shower" data-name="shower" viewBox="0 0 21.29 21.29"><rect class="cls-10" x="0.38" y="0.38" width="20.54" height="20.54" rx="1" ry="1"/><rect class="cls-11" x="2.1" y="2.1" width="17.08" height="17.08" rx="1" ry="1"/><circle class="cls-12" cx="4.2" cy="16.99" r="1.02"/><line class="cls-9" x1="5.63" y1="15.67" x2="17.97" y2="3.26"/><line class="cls-9" x1="4.99" y1="15.22" x2="10.17" y2="2.93"/><line class="cls-9" x1="5.96" y1="16.4" x2="18.42" y2="11.45"/></symbol><symbol id="kitchen_sink" data-name="kitchen sink" viewBox="0 0 48.54 16.46"><rect class="cls-4" x="0.5" y="0.5" width="47.54" height="15.46" rx="1" ry="1"/><rect class="cls-7" x="15.93" y="2.48" width="7.67" height="11.51" rx="1" ry="1"/><rect class="cls-7" x="24.27" y="2.48" width="7.67" height="11.51" rx="1" ry="1"/><polygon class="cls-8" points="21.04 4.31 21.62 4.88 24.26 2.24 23.68 1.67 21.04 4.31"/><circle class="cls-7" cx="23.97" cy="1.95" r="0.52"/><circle class="cls-8" cx="19.77" cy="5.72" r="0.64"/><circle class="cls-8" cx="28.1" cy="5.72" r="0.64"/><line class="cls-9" x1="33.93" y1="3.27" x2="46.09" y2="3.27"/><line class="cls-9" x1="33.93" y1="4.27" x2="46.09" y2="4.27"/><line class="cls-9" x1="33.93" y1="5.27" x2="46.09" y2="5.27"/><line class="cls-9" x1="33.93" y1="6.27" x2="46.09" y2="6.27"/><line class="cls-9" x1="33.93" y1="7.27" x2="46.09" y2="7.27"/><line class="cls-9" x1="33.93" y1="8.27" x2="46.09" y2="8.27"/><line class="cls-9" x1="33.93" y1="9.27" x2="46.09" y2="9.27"/><line class="cls-9" x1="33.93" y1="10.27" x2="46.09" y2="10.27"/><line class="cls-9" x1="33.93" y1="11.27" x2="46.09" y2="11.27"/><line class="cls-9" x1="33.93" y1="12.27" x2="46.09" y2="12.27"/><line class="cls-9" x1="33.93" y1="13.27" x2="46.09" y2="13.27"/></symbol><symbol id="toilet" data-name="toilet" viewBox="0 0 13.83 21.88"><path class="cls-13" d="M13.46,11.59c0-5.48-2.93-5.28-6.54-5.28S.38,6.11.38,11.59,3.3,21.5,6.92,21.5,13.46,17.06,13.46,11.59Z"/><path class="cls-14" d="M11.84,12.33c0-4.12-2.21-4-4.93-4S2,8.21,2,12.33,4.2,19.8,6.92,19.8,11.84,16.46,11.84,12.33Z"/><path class="cls-15" d="M8.25,10.46c0-1.12-.6-1.08-1.33-1.08s-1.33,0-1.33,1.08.6,2,1.33,2S8.25,11.57,8.25,10.46Z"/><rect class="cls-13" x="0.37" y="0.38" width="13.08" height="5.6" rx="1" ry="1"/><circle class="cls-14" cx="6.92" cy="3.94" r="0.77"/></symbol><symbol id="chair" data-name="chair" viewBox="0 0 11.61 11.61"><path class="cls-3" d="M10.36,11.36l-9.11-1a.93.93,0,0,1-1-.82V2.08a.93.93,0,0,1,1-.82l9.11-1a1,1,0,0,1,1,1v9.11A1,1,0,0,1,10.36,11.36Z"/><line class="cls-5" x1="1.25" y1="1.26" x2="1.25" y2="10.35"/></symbol><symbol id="table_and_chairs" data-name="table and chairs" viewBox="0 0 45.96 46.12"><rect class="cls-3" x="12.75" y="12.9" width="20.32" height="20.32" rx="1" ry="1"/><use width="11.61" height="11.61" transform="translate(0 17.75)" xlink:href="#chair"/><use width="11.61" height="11.61" transform="translate(45.96 29.36) rotate(180)" xlink:href="#chair"/><use width="11.61" height="11.61" transform="translate(28.71) rotate(90)" xlink:href="#chair"/><use width="11.61" height="11.61" transform="translate(17.11 46.12) rotate(-90)" xlink:href="#chair"/></symbol><symbol id="benchtop" data-name="benchtop" viewBox="0 0 43.13 9.68"><rect class="cls-4" x="0.5" y="0.5" width="42.13" height="8.68"/></symbol></defs><title>GumTreeLodgeUp</title><rect class="cls-2" x="1.99" y="43.43" width="491.39" height="199.07"/><polygon class="cls-2" points="493.38 139.5 403.46 139.5 403.46 151.5 378.05 151.5 378.05 242.04 493.38 242.04 493.38 139.5"/><polygon class="cls-2" points="493.38 42.83 378.05 42.83 378.05 127.43 403.46 127.43 403.46 139.43 493.38 139.43 493.38 42.83"/><rect class="cls-2" x="336" y="176.96" width="42.05" height="64.66"/><rect class="cls-2" x="336" y="128.43" width="42.05" height="48.07"/><rect class="cls-2" x="2.84" y="41.93" width="106.74" height="46.3"/><rect class="cls-2" x="72.38" y="88.23" width="38.2" height="54"/><rect class="cls-2" x="1.73" y="43.05" width="107.85" height="99.17"/><rect class="cls-2" x="109.58" y="142.23" width="122.47" height="100.27"/><rect class="cls-16" x="1.99" y="43.62" width="70.39" height="44.38"/><rect class="cls-17" x="380.21" y="122.59" width="20.73" height="9.13"/><rect class="cls-17" x="379.37" y="145.72" width="20.73" height="9.13"/><rect class="cls-17" x="78.23" y="81.77" width="27.32" height="12"/><rect class="cls-17" x="104.2" y="115.03" width="11.03" height="24.8"/><rect class="cls-17" x="66.87" y="114.03" width="11.03" height="24.8"/><rect class="cls-17" x="139.98" y="173.14" width="10.82" height="24.36"/><rect class="cls-18" x="139.98" y="173.14" width="10.82" height="24.36"/><rect class="cls-17" x="331.73" y="131.27" width="7.8" height="24.9"/><rect class="cls-17" x="338.86" y="170.96" width="24.92" height="11.08"/><rect class="cls-17" x="373.41" y="129.2" width="9.28" height="20.73"/><line class="cls-19" x1="2.77" y1="45.05" x2="2" y2="242.5"/><line class="cls-19" x1="494.26" y1="45.05" x2="493.49" y2="242.5"/><use width="67.14" height="30.38" transform="translate(199.35 211.39) rotate(-90)" xlink:href="#Single_bed"/><use width="67.14" height="30.38" transform="translate(413.33 207.49) rotate(-90)" xlink:href="#Single_bed"/><use width="67.14" height="30.38" transform="translate(460.2 207.49) rotate(-90)" xlink:href="#Single_bed"/><use width="51.97" height="20.79" transform="translate(328.05 163.83) rotate(90)" xlink:href="#couch"/><use width="67.14" height="30.38" transform="translate(111.66 239.36) rotate(-90)" xlink:href="#Single_bed"/><use width="73.78" height="58.44" transform="translate(16.06 217.85) rotate(-90)" xlink:href="#Queen_bed"/><use width="14.71" height="30.98" transform="translate(367.68 187.14) scale(0.66 0.5)" xlink:href="#coffee_table"/><use width="14.71" height="30.98" transform="translate(266.47 175.13)" xlink:href="#coffee_table"/><use width="14.71" height="30.98" transform="matrix(0, -1, 0.7, 0, 156.19, 141.08)" xlink:href="#coffee_table"/><use width="14.71" height="30.98" transform="translate(5.89 90.13) scale(1.53 1.59)" xlink:href="#coffee_table"/><use width="73.78" height="58.44" transform="translate(417.44 57.12)" xlink:href="#Queen_bed"/><use width="21.29" height="21.29" transform="translate(70.86 110.84) rotate(180)" xlink:href="#shower"/><use width="48.54" height="16.46" transform="translate(111.68 95.52) rotate(-90)" xlink:href="#kitchen_sink"/><use width="13.83" height="21.88" transform="translate(80.09 46.35) scale(1.19)" xlink:href="#toilet"/><use width="13.83" height="21.88" transform="translate(364.1 239.68) rotate(180) scale(1.19)" xlink:href="#toilet"/><use width="45.96" height="46.12" transform="translate(156.19 65.17)" xlink:href="#table_and_chairs"/><use width="43.13" height="9.68" transform="translate(178.54 131.22)" xlink:href="#benchtop"/><use width="11.61" height="11.61" transform="translate(394.86 47.54) rotate(90)" xlink:href="#chair"/><path d="M304.22,3.36V44.43H89V3.36H304.22m1-1H88V45.43H305.22V2.36Z" transform="translate(-2.76 -2.36)"/><path d="M226.33,3.36V44.43h-7.1V3.36h7.1m1-1h-9.1V45.43h9.1V2.36Z" transform="translate(-2.76 -2.36)"/><path d="M210,3.36V44.43H203V3.36H210m1-1H202V45.43H211V2.36Z" transform="translate(-2.76 -2.36)"/><path d="M161.19,3.36V44.43h-7.1V3.36h7.1m1-1h-9.1V45.43h9.1V2.36Z" transform="translate(-2.76 -2.36)"/><path d="M144.91,3.36V44.43h-7.1V3.36h7.1m1-1h-9.1V45.43h9.1V2.36Z" transform="translate(-2.76 -2.36)"/><path d="M193.76,3.36V44.43h-7.1V3.36h7.1m1-1h-9.1V45.43h9.1V2.36Z" transform="translate(-2.76 -2.36)"/><path d="M177.48,3.36V44.43h-7.1V3.36h7.1m1-1h-9.1V45.43h9.1V2.36Z" transform="translate(-2.76 -2.36)"/><path d="M128.62,3.36V44.43h-7.1V3.36h7.1m1-1h-9.1V45.43h9.1V2.36Z" transform="translate(-2.76 -2.36)"/><path d="M112.34,3.36V44.43h-7.1V3.36h7.1m1-1h-9.1V45.43h9.1V2.36Z" transform="translate(-2.76 -2.36)"/><path d="M96.05,3.36V44.43H89V3.36h7.1m1-1H88V45.43h9.1V2.36Z" transform="translate(-2.76 -2.36)"/><rect class="cls-17" x="113.57" y="136.81" width="24.39" height="10.84"/><rect class="cls-17" x="80.83" y="136.81" width="24.39" height="10.84"/><line class="cls-2" x1="84.73" y1="21.54" x2="155.38" y2="21.54"/><polyline class="cls-2" points="151.56 17.26 155.89 21.48 151.56 25.82"/><path d="M379.78,47.63V88.7h-98V47.63h98m1-1h-100V89.7h100V46.63Z" transform="translate(-2.76 -2.36)"/><path d="M337.76,47.63V88.7h-7.1V47.63h7.1m1-1h-9.1V89.7h9.1V46.63Z" transform="translate(-2.76 -2.36)"/><path d="M379.78,89.31v39.47H338.71V89.31h41.08m1-1H337.71v41.47h43.08V88.31Z" transform="translate(-2.76 -2.36)"/><path d="M321.48,47.63V88.7h-7.1V47.63h7.1m1-1h-9.1V89.7h9.1V46.63Z" transform="translate(-2.76 -2.36)"/><path d="M305.19,47.63V88.7h-7.1V47.63h7.1m1-1h-9.1V89.7h9.1V46.63Z" transform="translate(-2.76 -2.36)"/><path d="M288.91,47.63V88.7h-7.1V47.63h7.1m1-1h-9.1V89.7h9.1V46.63Z" transform="translate(-2.76 -2.36)"/><path d="M379.78,122.69v7.1H338.71v-7.1h41.08m1-1H337.71v9.1h43.08v-9.1Z" transform="translate(-2.76 -2.36)"/><path d="M379.78,106.4v7.1H338.71v-7.1h41.08m1-1H337.71v9.1h43.08v-9.1Z" transform="translate(-2.76 -2.36)"/><path d="M379.78,90.12v7.1H338.71v-7.1h41.08m1-1H337.71v9.1h43.08v-9.1Z" transform="translate(-2.76 -2.36)"/><line class="cls-2" x1="352.88" y1="65.17" x2="282.24" y2="65.17"/><polyline class="cls-2" points="286.06 69.45 281.73 65.22 286.06 60.89"/><line class="cls-2" x1="356.49" y1="119.33" x2="356.49" y2="72.96"/><polyline class="cls-2" points="352.21 76.78 356.43 72.45 360.76 76.78"/><line class="cls-19" x1="2.84" y1="43.83" x2="493.38" y2="43.83"/><line class="cls-19" x1="2.84" y1="242.5" x2="493.38" y2="242.5"/><rect class="cls-17" x="237.65" y="37.23" width="24.39" height="10.84"/></svg>