<svg id="Layer_1" data-name="Layer 1" xmlns="http://www.w3.org/2000/svg" viewBox="0 0 143.82 130.67"><defs><style>.cls-1{fill:#f39200;}.cls-2{fill:#6f9c2e;}.cls-3{fill:#fff;}.cls-4{fill:#fdc400;}</style></defs><title>logo2012-shape-only_bounds</title><path class="cls-1" d="M49,83.76c-2.47,8-11.77,17.28-19.7,19.81-3.71,1.18-9.27,1.21-13.3,1a27.62,27.62,0,0,1-5.91-.54,15.12,15.12,0,0,1-5.42-3.15c3.21.25,10.42-.64,14.58-2.95,3.41-1.9,6.69-5.58,9.31-8.43,3.24-3.53,5.17-7.7,10.09-9.3,4.38-1.43,7.59,2.58,11.08,2.71"/><path class="cls-1" d="M44.87,83.06q.25,1.27.53,2.52c4.13,1,7.59,3,12.11,4.94.93,1.36,1.07,1.27,2.46,2,3.81,5.21,13.74,6.68,19.41,4.47C86,94.39,90,90.92,94.15,86.12c.38-.43.75-.84,1.11-1.23a64,64,0,0,0-7.63-22.52C80.88,50.1,72.2,39.64,62.95,30.21c-7.4-7.54-18.48-14.05-23.41-24.43C49.66,27.1,40.18,59,44.87,83.06Z"/><path class="cls-2" d="M77,75.23c5.73-11.45,15.43-15.61,27.74-11.54C116,67.41,128.85,82,139.63,81.63c-5.25.17-9.61,5.16-13.94,7.62a47,47,0,0,1-17.52,6.28,22,22,0,0,1-16.11-4.43c-5-3.63-12.13-11.76-17-12.73l-.32.17"/><path class="cls-3" d="M44.4,94.14l.32-.17c5.18-1.15,11.94,9.1,17,12.73a22,22,0,0,0,16.11,4.43,46.93,46.93,0,0,0,17.52-6.28c4.32-2.46,8.2-7.28,13.44-7.44C93.23,98,86,82,74.77,78.55c-12.39-3.81-23.51.53-29.11,11.73a21.28,21.28,0,0,1-3.13,4.17"/><path class="cls-3" d="M48.43,75.7a42.63,42.63,0,0,1,12.95-5.36,22.06,22.06,0,0,1,16.46,2.89A30,30,0,0,1,81.58,76q-1-2.19-2.11-4.29A104.29,104.29,0,0,0,62.11,49.07c-5.2-5.3-13-9.88-16.46-17.18C51.36,43.93,48.2,60.78,48.43,75.7Z"/><polygon class="cls-3" points="99.66 67.81 76.13 70.12 99.65 72.53 75.63 71.79 96.92 77.08 74.19 73.33 91.66 81.11 71.92 74.63 84.27 84.32 68.98 75.6 75.29 86.47 65.58 76.15 65.4 87.41 61.99 76.26 55.32 87.07 58.47 75.91 45.81 85.47 55.27 75.13 37.56 82.72 52.64 73.97 31.19 79.04 50.78 72.53 27.17 74.7 49.81 70.91 25.81 70.02 49.81 69.22 27.2 65.33 50.78 67.6 31.23 61.01 52.66 66.17 37.62 57.35 55.29 65.02 45.87 54.65 58.49 64.26 55.39 53.08 62.02 63.92 65.47 52.78 65.61 64.04 75.36 53.77 69 64.61 84.33 55.96 71.94 65.59 91.71 59.2 74.21 66.9 96.94 63.25 75.64 68.45 99.66 67.81"/><path class="cls-4" d="M52.31,83.54c.41,3.93-6.22,10.18-2.54,20.81,3.51,10.11,12,9.58,16.55,20.81-1.88-16.38,1.75-16.07-.49-25.23-1.72-7-4.84-9.18-7.46-10.49S53.13,87,52.31,83.54Z"/><path class="cls-1" d="M49.43,84.19C30.08,68.29,33.54,102.61,4.74,101c5.53,4.38,30.17,9.9,44-15.43"/><path class="cls-4" d="M52.42,83.73C40.67,114.59,61.63,109.52,66,124.5c-2.07-13.36,1.94-15.11-.46-25.1-2.76-11.52-11.29-8.75-13.13-15.66"/><path class="cls-1" d="M49,83.76c-2.47,8-11.77,17.28-19.7,19.81-3.71,1.18-9.27,1.21-13.3,1a27.62,27.62,0,0,1-5.91-.54,15.12,15.12,0,0,1-5.42-3.15c3.21.25,10.42-.64,14.58-2.95,3.41-1.9,6.69-5.58,9.31-8.43,3.24-3.53,5.17-7.7,10.09-9.3,4.38-1.43,7.59,2.58,11.08,2.71"/><path class="cls-1" d="M44.87,83.06q.25,1.27.53,2.52c4.13,1,7.59,3,12.11,4.94.93,1.36,1.07,1.27,2.46,2,3.81,5.21,13.74,6.68,19.41,4.47C86,94.39,90,90.92,94.15,86.12c.38-.43.75-.84,1.11-1.23a64,64,0,0,0-7.63-22.52C80.88,50.1,72.2,39.64,62.95,30.21c-7.4-7.54-18.48-14.05-23.41-24.43C49.66,27.1,40.18,59,44.87,83.06Z"/><path class="cls-2" d="M77,75.23c5.73-11.45,15.43-15.61,27.74-11.54C116,67.41,128.85,82,139.63,81.63c-5.25.17-9.61,5.16-13.94,7.62a47,47,0,0,1-17.52,6.28,22,22,0,0,1-16.11-4.43c-5-3.63-12.13-11.76-17-12.73l-.32.17"/><path class="cls-3" d="M44.4,94.14l.32-.17c5.18-1.15,11.94,9.1,17,12.73a22,22,0,0,0,16.11,4.43,46.93,46.93,0,0,0,17.52-6.28c4.32-2.46,8.2-7.28,13.44-7.44C93.23,98,86,82,74.77,78.55c-12.39-3.81-23.51.53-29.11,11.73a21.28,21.28,0,0,1-3.13,4.17"/><path class="cls-3" d="M48.43,75.7a42.63,42.63,0,0,1,12.95-5.36,22.06,22.06,0,0,1,16.46,2.89A30,30,0,0,1,81.58,76q-1-2.19-2.11-4.29A104.29,104.29,0,0,0,62.11,49.07c-5.2-5.3-13-9.88-16.46-17.18C51.36,43.93,48.2,60.78,48.43,75.7Z"/><polygon class="cls-3" points="99.66 67.81 76.13 70.12 99.65 72.53 75.63 71.79 96.92 77.08 74.19 73.33 91.66 81.11 71.92 74.63 84.27 84.32 68.98 75.6 75.29 86.47 65.58 76.15 65.4 87.41 61.99 76.26 55.32 87.07 58.47 75.91 45.81 85.47 55.27 75.13 37.56 82.72 52.64 73.97 31.19 79.04 50.78 72.53 27.17 74.7 49.81 70.91 25.81 70.02 49.81 69.22 27.2 65.33 50.78 67.6 31.23 61.01 52.66 66.17 37.62 57.35 55.29 65.02 45.87 54.65 58.49 64.26 55.39 53.08 62.02 63.92 65.47 52.78 65.61 64.04 75.36 53.77 69 64.61 84.33 55.96 71.94 65.59 91.71 59.2 74.21 66.9 96.94 63.25 75.64 68.45 99.66 67.81"/><path class="cls-4" d="M52.31,83.54c.41,3.93-6.22,10.18-2.54,20.81,3.51,10.11,12,9.58,16.55,20.81-1.88-16.38,1.75-16.07-.49-25.23-1.72-7-4.84-9.18-7.46-10.49S53.13,87,52.31,83.54Z"/><path class="cls-1" d="M49.43,84.19C30.08,68.29,33.54,102.61,4.74,101c5.53,4.38,30.17,9.9,44-15.43"/><path class="cls-4" d="M52.42,83.73C40.67,114.59,61.63,109.52,66,124.5c-2.07-13.36,1.94-15.11-.46-25.1-2.76-11.52-11.29-8.75-13.13-15.66"/></svg>