<?xml version="1.0" encoding="utf-8"?>
<!-- Generator: Adobe Illustrator 15.0.0, SVG Export Plug-In  -->
<!DOCTYPE svg PUBLIC "-//W3C//DTD SVG 1.1//EN" "http://www.w3.org/Graphics/SVG/1.1/DTD/svg11.dtd" [
	<!ENTITY ns_flows "http://ns.adobe.com/Flows/1.0/">
]>
<svg version="1.1"
	 xmlns="http://www.w3.org/2000/svg" xmlns:xlink="http://www.w3.org/1999/xlink" xmlns:a="http://ns.adobe.com/AdobeSVGViewerExtensions/3.0/"
	 x="0px" y="0px" width="595px" height="842px" viewBox="-228.981 -328.069 595 842"
	 style="enable-background:new -228.981 -328.069 595 842;" xml:space="preserve">
<style type="text/css">
<![CDATA[
	.st0{fill:#F39200;}
	.st1{fill:#FDC400;}
	.st2{fill:#FFFFFF;}
	.st3{fill:#6F9C2E;}
]]>
</style>
<defs>
</defs>
<path class="st0" d="M44.318,77.985c-2.468,7.997-11.771,17.276-19.696,19.808c-3.706,1.184-9.268,1.211-13.296,0.993
	c-1.915-0.106-4.067-0.016-5.908-0.543C3.609,97.727,1.729,96.572,0,95.092c3.206,0.249,10.419-0.641,14.582-2.949
	c3.414-1.896,6.688-5.58,9.311-8.435c3.244-3.529,5.168-7.697,10.085-9.302c4.385-1.431,7.586,2.583,11.079,2.712"/>
<path class="st0" d="M40.145,77.285c0.165,0.85,0.342,1.691,0.527,2.522c4.134,1.005,7.593,2.951,12.11,4.943
	c0.931,1.356,1.071,1.274,2.461,1.972c3.814,5.211,13.736,6.679,19.414,4.471c6.644-2.585,10.583-6.053,14.762-10.848
	c0.376-0.435,0.747-0.842,1.113-1.227c-1.082-8.154-3.825-15.604-7.626-22.521c-6.751-12.276-15.438-22.735-24.684-32.163
	C50.824,16.896,39.741,10.384,34.815,0C44.93,21.324,35.449,53.263,40.145,77.285z"/>
<path class="st3" d="M72.314,69.453c5.727-11.452,15.434-15.615,27.741-11.543c11.239,3.72,24.07,18.284,34.846,17.944
	c-5.247,0.168-9.614,5.164-13.936,7.62c-5.408,3.071-11.191,5.521-17.521,6.284c-5.179,0.625-10.556-0.426-16.108-4.431
	C82.302,81.7,75.205,73.57,70.358,72.598c-0.106,0.057-0.211,0.112-0.319,0.169"/>
<path class="st2" d="M39.669,88.362c0.108-0.057,0.213-0.113,0.321-0.17c5.18-1.146,11.943,9.103,16.976,12.73
	c5.553,4.003,10.932,5.056,16.108,4.431c6.33-0.763,12.116-3.212,17.521-6.284c4.324-2.459,8.197-7.275,13.442-7.443
	c-15.538,0.548-22.737-15.4-33.999-18.859c-12.392-3.805-23.507,0.528-29.107,11.731c-0.971,1.939-3.128,4.169-3.128,4.169"/>
<path class="st2" d="M43.703,69.919c3.995-2.41,8.273-4.346,12.948-5.364c5.096-1.109,10.547-0.571,16.455,2.888
	c1.154,0.678,2.42,1.653,3.744,2.753c-0.634-1.462-1.34-2.893-2.109-4.29c-4.747-8.631-10.855-15.983-17.356-22.614
	c-5.202-5.302-12.994-9.881-16.457-17.18C46.637,38.147,43.468,55.001,43.703,69.919z"/>
<polygon class="st2" points="94.934,62.028 71.397,64.342 94.924,66.755 70.903,66.008 92.189,71.3 69.466,67.549 86.929,75.327 
	67.191,68.851 79.54,78.537 64.248,69.817 70.564,80.692 60.855,70.374 60.672,81.634 57.263,70.48 50.594,81.29 53.738,70.132 
	41.079,79.688 50.544,69.349 32.832,76.941 47.913,68.194 26.462,73.263 46.048,66.75 22.446,68.919 45.079,65.127 21.084,64.235 
	45.084,63.442 22.469,59.554 46.057,61.822 26.503,55.228 47.932,60.389 32.887,51.574 50.566,59.243 41.145,48.866 53.763,58.477 
	50.666,47.303 57.29,58.142 60.746,47.004 60.88,58.264 70.637,47.986 64.271,58.834 79.601,50.18 67.209,59.812 86.979,53.421 
	69.479,61.122 92.217,57.471 70.913,62.671 "/>
<path class="st1" d="M47.587,77.759c0.41,3.932-6.225,10.185-2.539,20.808c3.509,10.114,12.043,9.583,16.548,20.807
	c-1.884-16.383,1.747-16.066-0.489-25.229c-1.723-7.047-4.836-9.175-7.457-10.485C51.028,82.347,48.407,81.199,47.587,77.759z"/>
<path class="st0" d="M44.699,78.408C25.353,62.515,28.808,96.835,0.014,95.224c5.528,4.375,30.175,9.903,43.995-15.435"/>
<path class="st1" d="M47.693,77.948c-11.746,30.864,9.214,25.796,13.59,40.768c-2.071-13.36,1.939-15.107-0.46-25.104
	C58.06,82.094,49.536,84.857,47.693,77.948"/>
<path class="st0" d="M44.318,77.985c-2.468,7.997-11.771,17.276-19.696,19.808c-3.706,1.184-9.268,1.211-13.296,0.993
	c-1.915-0.106-4.067-0.016-5.908-0.543C3.609,97.727,1.729,96.572,0,95.092c3.206,0.249,10.419-0.641,14.582-2.949
	c3.414-1.896,6.688-5.58,9.311-8.435c3.244-3.529,5.168-7.697,10.085-9.302c4.385-1.431,7.586,2.583,11.079,2.712"/>
<path class="st0" d="M40.145,77.285c0.165,0.85,0.342,1.691,0.527,2.522c4.134,1.005,7.593,2.951,12.11,4.943
	c0.931,1.356,1.071,1.274,2.461,1.972c3.814,5.211,13.736,6.679,19.414,4.471c6.644-2.585,10.583-6.053,14.762-10.848
	c0.376-0.435,0.747-0.842,1.113-1.227c-1.082-8.154-3.825-15.604-7.626-22.521c-6.751-12.276-15.438-22.735-24.684-32.163
	C50.824,16.896,39.741,10.384,34.815,0C44.93,21.324,35.449,53.263,40.145,77.285z"/>
<path class="st3" d="M72.314,69.453c5.727-11.452,15.434-15.615,27.741-11.543c11.239,3.72,24.07,18.284,34.846,17.944
	c-5.247,0.168-9.614,5.164-13.936,7.62c-5.408,3.071-11.191,5.521-17.521,6.284c-5.179,0.625-10.556-0.426-16.108-4.431
	C82.302,81.7,75.205,73.57,70.358,72.598c-0.106,0.057-0.211,0.112-0.319,0.169"/>
<path class="st2" d="M39.669,88.362c0.108-0.057,0.213-0.113,0.321-0.17c5.18-1.146,11.943,9.103,16.976,12.73
	c5.553,4.003,10.932,5.056,16.108,4.431c6.33-0.763,12.116-3.212,17.521-6.284c4.324-2.459,8.197-7.275,13.442-7.443
	c-15.538,0.548-22.737-15.4-33.999-18.859c-12.392-3.805-23.507,0.528-29.107,11.731c-0.971,1.939-3.128,4.169-3.128,4.169"/>
<path class="st2" d="M43.703,69.919c3.995-2.41,8.273-4.346,12.948-5.364c5.096-1.109,10.547-0.571,16.455,2.888
	c1.154,0.678,2.42,1.653,3.744,2.753c-0.634-1.462-1.34-2.893-2.109-4.29c-4.747-8.631-10.855-15.983-17.356-22.614
	c-5.202-5.302-12.994-9.881-16.457-17.18C46.637,38.147,43.468,55.001,43.703,69.919z"/>
<polygon class="st2" points="94.934,62.028 71.397,64.342 94.924,66.755 70.903,66.008 92.189,71.3 69.466,67.549 86.929,75.327 
	67.191,68.851 79.54,78.537 64.248,69.817 70.564,80.692 60.855,70.374 60.672,81.634 57.263,70.48 50.594,81.29 53.738,70.132 
	41.079,79.688 50.544,69.349 32.832,76.941 47.913,68.194 26.462,73.263 46.048,66.75 22.446,68.919 45.079,65.127 21.084,64.235 
	45.084,63.442 22.469,59.554 46.057,61.822 26.503,55.228 47.932,60.389 32.887,51.574 50.566,59.243 41.145,48.866 53.763,58.477 
	50.666,47.303 57.29,58.142 60.746,47.004 60.88,58.264 70.637,47.986 64.271,58.834 79.601,50.18 67.209,59.812 86.979,53.421 
	69.479,61.122 92.217,57.471 70.913,62.671 "/>
<path class="st1" d="M47.587,77.759c0.41,3.932-6.225,10.185-2.539,20.808c3.509,10.114,12.043,9.583,16.548,20.807
	c-1.884-16.383,1.747-16.066-0.489-25.229c-1.723-7.047-4.836-9.175-7.457-10.485C51.028,82.347,48.407,81.199,47.587,77.759z"/>
<path class="st0" d="M44.699,78.408C25.353,62.515,28.808,96.835,0.014,95.224c5.528,4.375,30.175,9.903,43.995-15.435"/>
<path class="st1" d="M47.693,77.948c-11.746,30.864,9.214,25.796,13.59,40.768c-2.071-13.36,1.939-15.107-0.46-25.104
	C58.06,82.094,49.536,84.857,47.693,77.948"/>
</svg>
